<svg width="70" height="32" viewBox="0 0 70 32" fill="none" xmlns="http://www.w3.org/2000/svg">
<path d="M35.0006 16.86C35.4756 16.86 35.8606 16.475 35.8606 16C35.8606 15.525 35.4756 15.14 35.0006 15.14C34.5257 15.14 34.1406 15.525 34.1406 16C34.1406 16.475 34.5257 16.86 35.0006 16.86Z" stroke="#9095A0" stroke-width="1.032" stroke-miterlimit="10" stroke-linecap="square"/>
<path d="M31.1403 16.86C31.6152 16.86 32.0003 16.475 32.0003 16C32.0003 15.525 31.6152 15.14 31.1403 15.14C30.6653 15.14 30.2803 15.525 30.2803 16C30.2803 16.475 30.6653 16.86 31.1403 16.86Z" stroke="#9095A0" stroke-width="1.032" stroke-miterlimit="10" stroke-linecap="square"/>
<path d="M38.86 16.86C39.335 16.86 39.72 16.475 39.72 16C39.72 15.525 39.335 15.14 38.86 15.14C38.385 15.14 38 15.525 38 16C38 16.475 38.385 16.86 38.86 16.86Z" stroke="#9095A0" stroke-width="1.032" stroke-miterlimit="10" stroke-linecap="square"/>
</svg>
