<svg width="36" height="36" viewBox="0 0 36 36" fill="none" xmlns="http://www.w3.org/2000/svg">
<path d="M18.0002 16.1599C16.9882 16.1599 16.1602 16.9879 16.1602 17.9999C16.1602 19.0119 16.9882 19.8399 18.0002 19.8399C19.0122 19.8399 19.8402 19.0119 19.8402 17.9999C19.8402 16.9879 19.0122 16.1599 18.0002 16.1599ZM18.0002 10.6399C16.9882 10.6399 16.1602 11.4679 16.1602 12.4799C16.1602 13.4919 16.9882 14.3199 18.0002 14.3199C19.0122 14.3199 19.8402 13.4919 19.8402 12.4799C19.8402 11.4679 19.0122 10.6399 18.0002 10.6399ZM18.0002 21.6799C16.9882 21.6799 16.1602 22.5079 16.1602 23.5199C16.1602 24.5319 16.9882 25.3599 18.0002 25.3599C19.0122 25.3599 19.8402 24.5319 19.8402 23.5199C19.8402 22.5079 19.0122 21.6799 18.0002 21.6799Z" fill="#9095A0"/>
</svg>
