<svg width="20" height="20" viewBox="0 0 20 20" fill="none" xmlns="http://www.w3.org/2000/svg">
<path d="M16.5 2.5L3.5 2.5C2.94772 2.5 2.5 2.94772 2.5 3.5L2.5 16.5C2.5 17.0523 2.94772 17.5 3.5 17.5L16.5 17.5C17.0523 17.5 17.5 17.0523 17.5 16.5L17.5 3.5C17.5 2.94772 17.0523 2.5 16.5 2.5ZM6.9435 15.297L4.687 15.297L4.687 8.125H6.9435L6.9435 15.297ZM5.815 7.1405C5.09065 7.13829 4.50503 6.54969 4.5065 5.82534C4.50797 5.10099 5.09598 4.51477 5.82033 4.51551C6.54468 4.51624 7.1315 5.10365 7.1315 5.828C7.13163 6.17683 6.99285 6.51136 6.74581 6.75764C6.49878 7.00393 6.16383 7.1417 5.815 7.1405ZM15.3105 15.297L13.1 15.297L13.1 11.828C13.1 10.9845 13.1 9.953 11.925 9.953C10.75 9.953 10.6085 10.844 10.6085 11.781L10.6085 15.344H8.4L8.4 8.125H10.468V9.1095H10.515C10.9496 8.35811 11.763 7.90748 12.6305 7.9375C14.887 7.9375 15.31 9.4375 15.31 11.3595L15.3105 15.297Z" fill="#303EFF"/>
</svg>
