<svg width="36" height="36" viewBox="0 0 36 36" fill="none" xmlns="http://www.w3.org/2000/svg">
<rect width="36" height="36" rx="18" fill="#636AE8"/>
<path d="M17.9999 20.3701C19.3088 20.3701 20.3699 19.309 20.3699 18.0001C20.3699 16.6912 19.3088 15.6301 17.9999 15.6301C16.691 15.6301 15.6299 16.6912 15.6299 18.0001C15.6299 19.309 16.691 20.3701 17.9999 20.3701Z" stroke="white" stroke-width="1.896" stroke-miterlimit="10" stroke-linecap="square"/>
<path d="M24.3201 18.0001C24.3192 17.545 24.2694 17.0913 24.1716 16.6468L26.3156 15.0233L24.7356 12.2868L22.2527 13.3343C21.5803 12.7179 20.7822 12.2546 19.9135 11.9763L19.5801 9.31006L16.4201 9.31006L16.0867 11.9763C15.218 12.2546 14.4199 12.7179 13.7475 13.3343L11.2646 12.2868L9.68457 15.0233L11.8286 16.6468C11.6307 17.5381 11.6307 18.462 11.8286 19.3533L9.68457 20.9768L11.2646 23.7133L13.7475 22.6658C14.4199 23.2822 15.218 23.7455 16.0867 24.0238L16.4201 26.6901H19.5801L19.9135 24.0238C20.7822 23.7455 21.5803 23.2822 22.2527 22.6658L24.7356 23.7133L26.3156 20.9768L24.1716 19.3533C24.2694 18.9089 24.3192 18.4552 24.3201 18.0001Z" stroke="white" stroke-width="1.896" stroke-miterlimit="10" stroke-linecap="round"/>
</svg>
