<svg width="48" height="48" viewBox="0 0 48 48" fill="none" xmlns="http://www.w3.org/2000/svg">
<rect width="48" height="48" rx="24" fill="#EEFDF3"/>
<path d="M16.2002 31.8V33C16.2002 33.36 16.4402 33.6 16.8002 33.6L31.2002 33.6C31.5602 33.6 31.8002 33.36 31.8002 33V31.8L16.2002 31.8Z" fill="#117B34"/>
<path d="M27.6006 15.36V18.6H30.8406L27.6006 15.36Z" fill="#117B34"/>
<path d="M33.0004 22.2H31.8004L31.8004 19.8H27.0004C26.6404 19.8 26.4004 19.56 26.4004 19.2V14.4L16.8004 14.4C16.4404 14.4 16.2004 14.64 16.2004 15L16.2004 22.2H15.0004C14.6404 22.2 14.4004 22.44 14.4004 22.8L14.4004 30C14.4004 30.36 14.6404 30.6 15.0004 30.6L33.0004 30.6C33.3604 30.6 33.6004 30.36 33.6004 30V22.8C33.6004 22.44 33.3604 22.2 33.0004 22.2ZM20.1604 28.2L19.5004 27.12L18.7804 28.2H17.7604L18.9004 26.46L17.8204 24.78H18.8404L19.4404 25.86L20.0404 24.78H21.1204L20.0404 26.52L21.1804 28.2H20.1604ZM23.8204 28.2H21.6004V24.78H22.5004L22.5004 27.48H23.8204V28.2ZM25.2604 25.86C25.3204 25.92 25.5004 25.98 25.8004 26.16C26.1004 26.28 26.2804 26.46 26.4004 26.58C26.5204 26.7 26.5804 26.94 26.5804 27.18C26.5804 27.42 26.5204 27.6 26.4004 27.72C26.2804 27.84 26.1604 28.02 25.9204 28.08C25.6804 28.14 25.5004 28.2 25.2004 28.2C24.9604 28.2 24.7804 28.2 24.6004 28.14C24.4204 28.08 24.3004 28.08 24.1204 27.96V27.12C24.3004 27.24 24.4804 27.3 24.6604 27.36C24.8404 27.42 25.0204 27.42 25.2004 27.42C25.3204 27.42 25.4404 27.42 25.5004 27.36C25.5604 27.3 25.6204 27.24 25.6204 27.18C25.6204 27.12 25.6204 27.12 25.5604 27.06C25.5004 27 25.5004 27 25.4404 26.94C25.3804 26.88 25.2604 26.82 24.9604 26.7C24.7204 26.58 24.5404 26.52 24.4804 26.4C24.4204 26.28 24.3004 26.22 24.2404 26.1C24.1804 25.98 24.1804 25.86 24.1804 25.68C24.1804 25.38 24.3004 25.14 24.5404 24.96C24.7804 24.78 25.0804 24.72 25.5004 24.72C25.8604 24.72 26.2204 24.78 26.5804 24.96L26.2804 25.68C25.9804 25.56 25.6804 25.44 25.4404 25.44C25.3204 25.44 25.2604 25.44 25.2004 25.5C25.1404 25.56 25.1404 25.62 25.1404 25.68C25.1404 25.74 25.2004 25.8 25.2604 25.86ZM29.1604 28.2L28.5004 27.12L27.8404 28.2H26.8204L27.9604 26.46L26.8804 24.78H27.9004L28.5004 25.86L29.1004 24.78H30.1804L29.1004 26.52L30.2404 28.2H29.1604Z" fill="#117B34"/>
</svg>
