<svg width="47" height="46" viewBox="0 0 47 46" fill="none" xmlns="http://www.w3.org/2000/svg">
<g clip-path="url(#clip0_1_1216)">
<path fill-rule="evenodd" clip-rule="evenodd" d="M26.0232 5.07509C27.934 8.44444 28.3228 12.4293 27.7693 16.4534C26.9331 22.5305 23.9483 28.6987 20.7502 33.0105C18.7406 35.7207 16.508 36.8819 13.9942 39.0836C13.8925 39.1727 13.8791 39.3283 13.9644 39.431C14.0492 39.5333 14.2014 39.5447 14.3026 39.4551C16.8457 37.2279 19.098 36.0457 21.1314 33.3038C24.3739 28.9319 27.397 22.676 28.2452 16.5136C28.8141 12.3786 28.4036 8.28505 26.44 4.82237C26.3739 4.70569 26.2274 4.66749 26.1122 4.73725C25.9971 4.80702 25.9571 4.9584 26.0232 5.07509Z" fill="#17A948"/>
<path fill-rule="evenodd" clip-rule="evenodd" d="M13.9014 39.8808C13.9108 39.8735 13.9725 39.8228 14.0285 39.7859C14.2596 39.6324 14.6872 39.401 15.2431 39.1414C17.1089 38.2727 20.4123 37.0941 22.6508 37.6007C22.78 37.6298 22.9093 37.5458 22.9401 37.413C22.9709 37.2803 22.8918 37.1487 22.7626 37.1195C20.4335 36.5924 16.9915 37.79 15.0505 38.6942C14.7906 38.8154 14.5568 38.9309 14.3569 39.0363C14.6994 38.4257 15.0565 37.8252 15.4211 37.227C16.4713 35.5053 17.0352 33.7995 17.2821 31.7818C17.2989 31.647 17.2051 31.5253 17.0736 31.511C16.9423 31.4961 16.8217 31.5943 16.8055 31.7292C16.5677 33.671 16.0255 35.3141 15.015 36.9712C14.5386 37.7533 14.0746 38.5403 13.6384 39.3455C13.5948 39.4259 13.4842 39.6354 13.4733 39.6669C13.41 39.8483 13.5389 39.9403 13.5684 39.9591C13.5826 39.9683 13.7649 40.072 13.9014 39.8808ZM13.5257 39.5806C13.522 39.5861 13.5178 39.5911 13.5139 39.5972C13.5168 39.5923 13.5211 39.587 13.5257 39.5806Z" fill="#17A948"/>
</g>
<defs>
<clipPath id="clip0_1_1216">
<rect x="11.2741" width="37.2183" height="36.2124" transform="rotate(18.14 11.2741 0)" fill="white"/>
</clipPath>
</defs>
</svg>
