<svg width="24" height="24" viewBox="0 0 24 24" fill="none" xmlns="http://www.w3.org/2000/svg">
<path d="M12.0001 14.5713C13.4203 14.5713 14.5716 13.4201 14.5716 11.9999C14.5716 10.5797 13.4203 9.42847 12.0001 9.42847C10.58 9.42847 9.42871 10.5797 9.42871 11.9999C9.42871 13.4201 10.58 14.5713 12.0001 14.5713Z" stroke="#565E6C" stroke-width="2.05714" stroke-miterlimit="10" stroke-linecap="square"/>
<path d="M18.857 12.0001C18.856 11.5063 18.8019 11.0141 18.6958 10.5318L21.0221 8.77039L19.3078 5.80125L16.6138 6.93782C15.8843 6.26899 15.0184 5.7663 14.0758 5.46439L13.7141 2.57153L10.2855 2.57153L9.92383 5.46439C8.98126 5.7663 8.11537 6.26899 7.38583 6.93782L4.69182 5.80125L2.97754 8.77039L5.30383 10.5318C5.08902 11.4989 5.08902 12.5013 5.30383 13.4684L2.97754 15.2298L4.69182 18.199L7.38583 17.0624C8.11537 17.7312 8.98126 18.2339 9.92383 18.5358L10.2855 21.4287H13.7141L14.0758 18.5358C15.0184 18.2339 15.8843 17.7312 16.6138 17.0624L19.3078 18.199L21.0221 15.2298L18.6958 13.4684C18.8019 12.9861 18.856 12.4939 18.857 12.0001Z" stroke="#565E6C" stroke-width="2.05714" stroke-miterlimit="10" stroke-linecap="square"/>
</svg>
