<svg width="48" height="48" viewBox="0 0 48 48" fill="none" xmlns="http://www.w3.org/2000/svg">
<rect x="0.5" y="0.5" width="47" height="47" rx="5.5" fill="#FEF9EE"/>
<rect x="0.5" y="0.5" width="47" height="47" rx="5.5" stroke="#FAFAFB"/>
<path d="M34.4602 14.55L15.5402 14.55C15.0652 14.55 14.6802 14.9351 14.6802 15.41L14.6802 29.17C14.6802 29.645 15.0652 30.03 15.5402 30.03L34.4602 30.03C34.9351 30.03 35.3202 29.645 35.3202 29.17V15.41C35.3202 14.9351 34.9351 14.55 34.4602 14.55ZM22.4202 26.59L22.4202 17.99L29.3002 22.29L22.4202 26.59Z" fill="#EFB034"/>
<path d="M30.1603 31.71L19.8403 31.71V33.43H30.1603V31.71Z" fill="#EFB034"/>
</svg>
