<svg width="20" height="20" viewBox="0 0 20 20" fill="none" xmlns="http://www.w3.org/2000/svg">
<path d="M17.0999 2.18994L2.89994 2.18994C2.50782 2.18994 2.18994 2.50782 2.18994 2.89994L2.18994 17.0999C2.18994 17.4921 2.50782 17.8099 2.89994 17.8099L17.0999 17.8099C17.4921 17.8099 17.8099 17.4921 17.8099 17.0999L17.8099 2.89994C17.8099 2.50782 17.4921 2.18994 17.0999 2.18994ZM16.3899 16.3899L3.60994 16.3899L3.60994 3.60994L16.3899 3.60994L16.3899 16.3899Z" fill="#424955"/>
<path d="M5.74014 14.9799L14.2601 14.9799C14.5062 14.98 14.7348 14.8527 14.8643 14.6434C14.9938 14.4341 15.0056 14.1727 14.8956 13.9525L12.0556 8.27251C11.9534 8.0682 11.7592 7.92552 11.5337 7.88911C11.3084 7.85067 11.0785 7.92492 10.9182 8.08791L5.23817 13.7679C5.03518 13.971 4.97446 14.2763 5.08433 14.5416C5.1942 14.8068 5.45302 14.9798 5.74014 14.9799Z" fill="#424955"/>
<path d="M7.13973 8.55997C7.92397 8.55997 8.55973 7.92422 8.55973 7.13997C8.55973 6.35573 7.92397 5.71997 7.13973 5.71997C6.35548 5.71997 5.71973 6.35573 5.71973 7.13997C5.71973 7.92422 6.35548 8.55997 7.13973 8.55997Z" fill="#424955"/>
</svg>
