<svg width="24" height="24" viewBox="0 0 24 24" fill="none" xmlns="http://www.w3.org/2000/svg">
<path d="M13.7142 16.2858C13.7142 16.0585 13.8045 15.8404 13.9652 15.6797C14.126 15.5189 14.344 15.4286 14.5713 15.4286H20.5713L20.5713 2.5715C20.5713 2.34417 20.481 2.12615 20.3203 1.96541C20.1595 1.80466 19.9415 1.71436 19.7142 1.71436L4.28561 1.71436C4.05828 1.71436 3.84026 1.80466 3.67952 1.96541C3.51877 2.12615 3.42847 2.34417 3.42847 2.5715L3.42847 21.4286C3.42847 21.656 3.51877 21.874 3.67952 22.0347C3.84026 22.1955 4.05828 22.2858 4.28561 22.2858L13.7142 22.2858L13.7142 16.2858ZM5.9999 6.00007L17.9999 6.00007V7.71436L5.9999 7.71436L5.9999 6.00007ZM5.9999 10.2858L17.9999 10.2858V12.0001L5.9999 12.0001L5.9999 10.2858ZM11.1428 16.2858H5.9999V14.5715L11.1428 14.5715V16.2858Z" fill="#636AE8"/>
<path d="M20.069 17.1428H15.4285L15.4285 21.7834L20.069 17.1428Z" fill="#636AE8"/>
</svg>
