<svg width="18" height="21" viewBox="0 0 18 21" fill="none" xmlns="http://www.w3.org/2000/svg">
<path d="M16.6251 0L0.875005 0C0.391753 0 0 0.391753 0 0.875005L0 20.1251C0 20.6084 0.391753 21.0001 0.875005 21.0001L16.6251 21.0001C17.1083 21.0001 17.5001 20.6084 17.5001 20.1251L17.5001 0.875005C17.5001 0.391753 17.1083 0 16.6251 0ZM9.64955 16.3836H7.84267L7.84267 7.87504L9.64955 7.87504L9.64955 16.3836ZM9.49993 6.35166C9.29843 6.53618 9.03062 6.63093 8.75792 6.61416C8.48023 6.63273 8.20686 6.53803 8.00017 6.35166C7.81726 6.15516 7.72245 5.89255 7.73767 5.62453C7.71906 5.35026 7.81397 5.08039 8.00017 4.87815C8.20722 4.69239 8.48033 4.59778 8.75792 4.61565C9.03054 4.59949 9.29812 4.69415 9.49993 4.87815C9.68612 5.08039 9.78103 5.35026 9.76243 5.62453C9.77764 5.89255 9.68283 6.15516 9.49993 6.35166Z" fill="#14923E"/>
</svg>
