<svg width="36" height="36" viewBox="0 0 36 36" fill="none" xmlns="http://www.w3.org/2000/svg">
<path d="M25.9201 10.8001V15.1201C25.9201 15.5177 25.5977 15.8401 25.2001 15.8401C24.8024 15.8401 24.4801 15.5177 24.4801 15.1201V12.538L19.9495 17.0695C19.6681 17.3508 19.212 17.3508 18.9307 17.0695C18.6493 16.7881 18.6493 16.332 18.9307 16.0507L23.4622 11.5201L20.8801 11.5201C20.4824 11.5201 20.1601 11.1977 20.1601 10.8001C20.1601 10.4024 20.4824 10.0801 20.8801 10.0801L25.2001 10.0801C25.5977 10.0801 25.9201 10.4024 25.9201 10.8001ZM16.0507 18.9307L11.5201 23.4622L11.5201 20.8801C11.5201 20.4824 11.1977 20.1601 10.8001 20.1601C10.4024 20.1601 10.0801 20.4824 10.0801 20.8801L10.0801 25.2001C10.0801 25.5977 10.4024 25.9201 10.8001 25.9201H15.1201C15.5177 25.9201 15.8401 25.5977 15.8401 25.2001C15.8401 24.8024 15.5177 24.4801 15.1201 24.4801H12.538L17.0695 19.9495C17.3508 19.6681 17.3508 19.212 17.0695 18.9307C16.7881 18.6493 16.332 18.6493 16.0507 18.9307Z" fill="#9095A0"/>
</svg>
