<svg width="48" height="48" viewBox="0 0 48 48" fill="none" xmlns="http://www.w3.org/2000/svg">
<rect width="48" height="48" rx="24" fill="#F1F8FD"/>
<path d="M25.7204 28.3001C25.7204 27.8251 26.1054 27.4401 26.5804 27.4401H32.6004V14.5401C32.6004 14.0651 32.2154 13.6801 31.7404 13.6801L16.2604 13.6801C15.7854 13.6801 15.4004 14.0651 15.4004 14.5401L15.4004 33.4601C15.4004 33.935 15.7854 34.3201 16.2604 34.3201H25.7204L25.7204 28.3001ZM17.9804 17.9801L30.0204 17.9801V19.7001L17.9804 19.7001V17.9801ZM17.9804 22.2801L30.0204 22.2801V24.0001L17.9804 24.0001V22.2801ZM23.1404 28.3001H17.9804V26.5801H23.1404V28.3001Z" fill="#379AE6"/>
<path d="M32.0811 29.1294H27.4199V33.7906L32.0811 29.1294Z" fill="#379AE6"/>
</svg>
