<svg width="150" height="23" viewBox="0 0 150 23" fill="none" xmlns="http://www.w3.org/2000/svg">
<mask id="mask0_1_1304" style="mask-type:luminance" maskUnits="userSpaceOnUse" x="-1" y="-1" width="28" height="25">
<path d="M26.3271 -0.233917H-0.121299V23.231H26.3271V-0.233917Z" fill="white"/>
</mask>
<g mask="url(#mask0_1_1304)">
<path d="M21.924 11.3248C21.924 11.4528 21.924 11.6353 21.924 11.7988V11.825C21.924 11.8863 21.924 11.9435 21.924 11.9882C21.924 12.0571 21.924 12.1328 21.924 12.2134C21.9023 13.7928 21.6477 15.3603 21.1688 16.8662C20.7798 18.0884 20.1296 19.2123 19.2625 20.1607C18.5073 20.9669 17.5953 21.6121 16.582 22.057C15.4478 22.5447 14.24 22.8419 13.0079 22.9362C12.9968 22.9373 12.9856 22.9373 12.9745 22.9362C12.5194 22.974 12.0428 22.9979 11.5449 22.9979H10.4154C8.88871 23.0252 7.36911 22.7843 5.92639 22.2868C4.69302 21.8514 3.58029 21.1327 2.67869 20.1891C1.74737 19.1789 1.06392 17.9677 0.681983 16.6504C0.200201 14.9931 -0.0287182 13.2729 0.00287531 11.5474C-0.0285279 9.81059 0.200353 8.07869 0.681983 6.40888C1.06293 5.08023 1.74611 3.85646 2.67869 2.83224C3.57835 1.87958 4.69215 1.15259 5.92875 0.71109C7.21506 0.257857 8.56734 0.0177961 9.93176 0C9.69347 0.0874661 9.44331 0.179857 9.21695 0.284362C8.1197 0.759935 7.12961 1.44982 6.30524 2.31312C5.33289 3.36461 4.61058 4.62018 4.19175 5.98708C3.69041 7.63303 3.43747 9.3441 3.4412 11.0639C3.4412 11.1847 3.4412 11.3009 3.4412 11.4406C3.4412 11.5807 3.4412 11.6921 3.4412 11.8155C3.45136 12.7246 3.54789 13.6307 3.7295 14.522C3.79383 14.8374 3.86531 15.1407 3.95111 15.4274C4.17775 16.2354 4.57225 16.9874 5.10911 17.6341C5.69762 18.2993 6.45213 18.798 7.29644 19.0801C7.73137 19.23 8.17862 19.3417 8.63315 19.4141L8.74038 19.4307H8.80235C9.32893 19.5034 9.85997 19.5401 10.3916 19.5398H11.5211C11.6592 19.5398 11.7974 19.5398 11.9309 19.5398C12.3241 19.5295 12.7163 19.4962 13.1056 19.4402C13.8412 19.3486 14.5573 19.1395 15.2262 18.8215C15.8316 18.5303 16.3714 18.1199 16.8131 17.6151C17.4172 16.8836 17.845 16.0241 18.0639 15.1029C18.3536 13.9257 18.4894 12.7163 18.4693 11.505C18.4894 10.2926 18.3551 9.08284 18.0688 7.90451C17.8507 6.98139 17.4282 6.11808 16.8322 5.37784C16.3952 4.86895 15.8574 4.45509 15.2524 4.16202C15.2286 4.16202 15.2047 4.14309 15.1809 4.1287H15.6837C16.1978 4.12757 16.7114 4.1624 17.2206 4.23321H17.2611L17.3563 4.25214L17.5946 4.29227L17.7259 4.3184H17.7639H17.7902L17.8545 4.33506L17.9832 4.36346C18.0928 4.39186 18.2047 4.42253 18.3094 4.45585L18.3714 4.47478C18.4453 4.49599 18.5146 4.52211 18.5835 4.54597C19.3128 4.79625 19.9629 5.23358 20.4684 5.81404C20.972 6.44258 21.3374 7.16919 21.5403 7.9473C21.5978 8.14873 21.6499 8.35964 21.6952 8.57774C21.8288 9.26156 21.9084 9.95524 21.9335 10.6516C21.9335 10.7299 21.9335 10.8034 21.9335 10.8719C21.9335 10.917 21.9335 10.9715 21.9335 11.0332C21.9335 11.0949 21.924 11.2085 21.924 11.3248Z" fill="#9095A0"/>
</g>
<mask id="mask1_1_1304" style="mask-type:luminance" maskUnits="userSpaceOnUse" x="-1" y="-1" width="28" height="25">
<path d="M26.3516 -0.237707H-0.0968436V23.2272H26.3516V-0.237707Z" fill="white"/>
</mask>
<g mask="url(#mask1_1_1304)">
<path d="M26.1223 11.4452C26.1543 13.1812 25.9263 14.912 25.4455 16.5814C25.0641 17.9105 24.3797 19.1342 23.4464 20.1581C22.5481 21.1111 21.4351 21.8381 20.1987 22.2792C18.8931 22.7374 17.5205 22.9778 16.1362 22.9903C16.3936 22.9002 16.6461 22.8033 16.8892 22.6942C17.9876 22.2099 18.9768 21.511 19.7987 20.639C20.7354 19.6162 21.4377 18.4031 21.8572 17.0839C22.3574 15.5125 22.6246 13.8776 22.6508 12.2297C22.6508 12.1608 22.6508 12.0851 22.6508 11.9927V10.8833C22.6508 10.8026 22.6508 10.7292 22.6508 10.6606C22.6234 9.61142 22.4632 8.56977 22.1743 7.56032C21.9512 6.75078 21.5565 5.99843 21.016 5.3536C20.429 4.68833 19.675 4.18928 18.8311 3.90795C17.8227 3.57512 16.7648 3.41458 15.7026 3.43389H14.5732C14.0534 3.43162 13.5341 3.46721 13.0196 3.54066C12.2833 3.63267 11.5665 3.84168 10.8966 4.15898C10.2923 4.45129 9.75345 4.86175 9.31206 5.36572C8.70714 6.09687 8.27846 6.95639 8.05875 7.878C7.77014 9.05519 7.63483 10.2646 7.65607 11.4759C7.63441 12.6883 7.76893 13.898 8.05635 15.0763C8.27283 15.9995 8.69458 16.8631 9.29063 17.603C9.72864 18.1119 10.2672 18.5258 10.8727 18.8188L10.9442 18.8495H10.4081C9.43699 18.8703 8.46958 18.7238 7.54884 18.416C6.82154 18.1638 6.1733 17.7268 5.66884 17.1479C5.1625 16.5205 4.79621 15.7935 4.59424 15.0146C4.31484 13.9696 4.17069 12.8939 4.16533 11.8125C4.16533 11.6894 4.16533 11.5754 4.16533 11.4474C4.16533 11.3195 4.16533 11.2104 4.16533 11.0802C4.16049 9.43043 4.40137 7.78902 4.88018 6.20933C5.27015 4.94429 5.94119 3.78262 6.84354 2.81065C7.60281 2.01436 8.51522 1.37862 9.52651 0.940534C10.6621 0.457767 11.8694 0.163945 13.1006 0.070421C13.5771 0.0280132 14.0752 0.00642823 14.5874 0.00642823H15.7169C17.2443 -0.0204553 18.7648 0.220363 20.2082 0.717518C21.4392 1.15296 22.55 1.86972 23.4513 2.81065C23.9024 3.2866 24.2922 3.81707 24.6115 4.3892C24.9602 5.01093 25.2411 5.66825 25.4505 6.34905C25.9278 8.00522 26.1539 9.72273 26.1223 11.4452Z" fill="#9095A0"/>
</g>
<mask id="mask2_1_1304" style="mask-type:luminance" maskUnits="userSpaceOnUse" x="-5" y="-4" width="159" height="31">
<path d="M153.978 -3.73447H-4.90185V26.6855H153.978V-3.73447Z" fill="white"/>
</mask>
<g mask="url(#mask2_1_1304)">
<path d="M38.5096 16.9541C37.4483 16.9541 36.4864 16.7273 35.6235 16.2733C34.7705 15.8095 34.096 15.1734 33.6 14.3642C33.1143 13.5456 32.8711 12.6228 32.8711 11.5967C32.8711 10.571 33.1143 9.65314 33.6 8.84436C34.096 8.02536 34.7705 7.38925 35.6235 6.93526C36.4864 6.47142 37.4533 6.23969 38.5244 6.23969C39.4269 6.23969 40.2404 6.39759 40.9643 6.71337C41.6982 7.02878 42.3133 7.48277 42.8093 8.07459L41.262 9.49562C40.5578 8.68647 39.685 8.28208 38.6436 8.28208C37.9987 8.28208 37.4236 8.42483 36.9177 8.71108C36.4118 8.98749 36.0152 9.37711 35.7274 9.88033C35.4499 10.3835 35.311 10.9557 35.311 11.5967C35.311 12.2381 35.4499 12.8102 35.7274 13.3135C36.0152 13.8167 36.4118 14.2112 36.9177 14.4975C37.4236 14.7739 37.9987 14.9117 38.6436 14.9117C39.685 14.9117 40.5578 14.5024 41.262 13.6834L42.8093 15.1041C42.3133 15.7061 41.6982 16.1646 40.9643 16.4804C40.2305 16.7962 39.4121 16.9541 38.5096 16.9541ZM49.4108 16.9541C48.3298 16.9541 47.3531 16.7224 46.4803 16.2585C45.6173 15.7947 44.9379 15.1586 44.4419 14.3494C43.9558 13.5304 43.713 12.613 43.713 11.5967C43.713 10.5808 43.9558 9.66791 44.4419 8.85913C44.9379 8.04013 45.6173 7.39909 46.4803 6.93526C47.3531 6.47142 48.3298 6.23969 49.4108 6.23969C50.4919 6.23969 51.464 6.47142 52.327 6.93526C53.1899 7.39909 53.869 8.04013 54.3649 8.85913C54.8609 9.66791 55.1087 10.5808 55.1087 11.5967C55.1087 12.613 54.8609 13.5304 54.3649 14.3494C53.869 15.1586 53.1899 15.7947 52.327 16.2585C51.464 16.7224 50.4919 16.9541 49.4108 16.9541ZM49.4108 14.9117C50.026 14.9117 50.5813 14.7739 51.0773 14.4975C51.5729 14.2112 51.96 13.8167 52.2375 13.3135C52.5253 12.8102 52.6692 12.2381 52.6692 11.5967C52.6692 10.9557 52.5253 10.3835 52.2375 9.88033C51.96 9.37711 51.5729 8.98749 51.0773 8.71108C50.5813 8.42483 50.026 8.28208 49.4108 8.28208C48.7961 8.28208 48.2407 8.42483 47.7448 8.71108C47.2488 8.98749 46.8571 9.37711 46.5693 9.88033C46.2918 10.3835 46.1529 10.9557 46.1529 11.5967C46.1529 12.2381 46.2918 12.8102 46.5693 13.3135C46.8571 13.8167 47.2488 14.2112 47.7448 14.4975C48.2407 14.7739 48.7961 14.9117 49.4108 14.9117ZM62.5884 6.23969C63.8281 6.23969 64.7953 6.62931 65.4896 7.40893C66.1836 8.17833 66.5307 9.27829 66.5307 10.7088V16.7765H64.1208V10.783C64.1208 9.95416 63.9225 9.33281 63.5255 8.9182C63.1388 8.49412 62.5983 8.28208 61.904 8.28208C61.1701 8.28208 60.5801 8.50889 60.1336 8.9625C59.6974 9.40665 59.4789 10.0678 59.4789 10.9458V16.7765H57.069V6.41728H59.4047V7.67512C59.7617 7.20144 60.2082 6.84628 60.7438 6.60962C61.2793 6.36313 61.8941 6.23969 62.5884 6.23969ZM72.4802 16.9541C71.6572 16.9541 70.8586 16.8454 70.0852 16.6285C69.3212 16.4017 68.7065 16.1105 68.2402 15.7553L69.0586 13.95C69.5047 14.2756 70.0353 14.5369 70.6504 14.7341C71.2652 14.9314 71.8803 15.0302 72.495 15.0302C73.1794 15.0302 73.6853 14.9314 74.0127 14.7341C74.34 14.527 74.5037 14.2559 74.5037 13.9204C74.5037 13.6736 74.4043 13.4714 74.206 13.3135C74.0176 13.1457 73.7698 13.0128 73.4622 12.914C73.1646 12.8152 72.7581 12.7069 72.2423 12.5884C71.4486 12.4009 70.7993 12.2135 70.2934 12.0261C69.7875 11.8387 69.3509 11.5376 68.984 11.1234C68.6269 10.7088 68.4484 10.1564 68.4484 9.46571C68.4484 8.86405 68.6121 8.32146 68.9394 7.83794C69.2668 7.34457 69.7578 6.95495 70.4121 6.66869C71.0767 6.38282 71.8852 6.23969 72.8372 6.23969C73.5018 6.23969 74.1516 6.31845 74.7861 6.47634C75.421 6.63423 75.9764 6.86142 76.4526 7.15714L75.7088 8.97764C74.7465 8.43467 73.7847 8.16357 72.8224 8.16357C72.1479 8.16357 71.6469 8.27224 71.32 8.4892C71.0025 8.70616 70.8438 8.99241 70.8438 9.34758C70.8438 9.70274 71.0273 9.96893 71.3942 10.1465C71.771 10.3142 72.3412 10.482 73.1052 10.6497C73.8985 10.8372 74.5482 11.0246 75.0541 11.212C75.56 11.3994 75.9912 11.6955 76.3483 12.0999C76.7152 12.5047 76.8987 13.0522 76.8987 13.7428C76.8987 14.3347 76.7301 14.8773 76.3928 15.3706C76.0659 15.8541 75.5699 16.2389 74.9053 16.5251C74.2407 16.811 73.4326 16.9541 72.4802 16.9541ZM87.2043 15.8886C86.7083 16.2241 86.0833 16.4853 85.3296 16.6728C84.5858 16.8602 83.7922 16.9541 82.9494 16.9541C81.8981 16.9541 81.0055 16.8257 80.2712 16.5694C79.5373 16.3028 78.982 15.9378 78.6051 15.4744C78.2283 15.0007 78.0399 14.463 78.0399 13.861C78.0399 13.3085 78.1937 12.8201 78.5008 12.396C78.8084 11.9719 79.2302 11.6562 79.7657 11.449C79.3588 11.2317 79.0417 10.936 78.8133 10.5611C78.5952 10.1859 78.486 9.76674 78.486 9.3029C78.486 8.74062 78.6596 8.22756 79.0067 7.7641C79.3539 7.30026 79.8795 6.93034 80.5837 6.65393C81.2879 6.3779 82.1508 6.23969 83.1725 6.23969C83.847 6.23969 84.5063 6.30861 85.1511 6.44681C85.7959 6.57517 86.3562 6.75275 86.8324 6.97956L86.1628 8.81483C85.2504 8.39038 84.2832 8.17834 83.2616 8.17834C82.4881 8.17834 81.903 8.29685 81.506 8.5335C81.1193 8.7603 80.9259 9.07117 80.9259 9.46571C80.9259 9.83072 81.055 10.1121 81.3127 10.3093C81.5806 10.4968 81.9822 10.5907 82.5178 10.5907H85.3593V12.485H82.3689C81.7641 12.485 81.2978 12.5884 80.9705 12.7955C80.6435 13.0026 80.4798 13.3036 80.4798 13.6982C80.4798 14.1128 80.688 14.4384 81.1044 14.6751C81.5311 14.9019 82.1805 15.0155 83.0533 15.0155C83.6685 15.0155 84.2832 14.9367 84.8983 14.7788C85.5131 14.6111 86.0338 14.379 86.4605 14.0832L87.2043 15.8886ZM93.5321 16.9541C92.4709 16.9541 91.509 16.7273 90.6461 16.2733C89.793 15.8095 89.1185 15.1734 88.6225 14.3642C88.1365 13.5456 87.8936 12.6228 87.8936 11.5967C87.8936 10.571 88.1365 9.65314 88.6225 8.84436C89.1185 8.02536 89.793 7.38925 90.6461 6.93526C91.509 6.47142 92.4758 6.23969 93.5469 6.23969C94.4495 6.23969 95.2629 6.39759 95.9869 6.71337C96.7208 7.02878 97.3359 7.48277 97.8315 8.07459L96.2845 9.49562C95.5803 8.68647 94.7075 8.28208 93.6661 8.28208C93.0213 8.28208 92.4461 8.42483 91.9402 8.71108C91.4344 8.98749 91.0377 9.37711 90.75 9.88033C90.4725 10.3835 90.3336 10.9557 90.3336 11.5967C90.3336 12.2381 90.4725 12.8102 90.75 13.3135C91.0377 13.8167 91.4344 14.2112 91.9402 14.4975C92.4461 14.7739 93.0213 14.9117 93.6661 14.9117C94.7075 14.9117 95.5803 14.5024 96.2845 13.6834L97.8315 15.1041C97.3359 15.7061 96.7208 16.1646 95.9869 16.4804C95.253 16.7962 94.4346 16.9541 93.5321 16.9541ZM107.195 9.31766C106.303 8.80498 105.345 8.47443 104.324 8.32638V16.7765H101.914V8.32638C100.892 8.47443 99.9304 8.80498 99.0278 9.31766L98.2095 7.52707C98.9235 7.103 99.697 6.78228 100.53 6.56532C101.363 6.34836 102.221 6.23969 103.104 6.23969C103.997 6.23969 104.86 6.34836 105.693 6.56532C106.536 6.78228 107.31 7.103 108.014 7.52707L107.195 9.31766ZM117.608 15.8886C117.112 16.2241 116.488 16.4853 115.734 16.6728C114.99 16.8602 114.197 16.9541 113.353 16.9541C112.302 16.9541 111.409 16.8257 110.676 16.5694C109.942 16.3028 109.386 15.9378 109.009 15.4744C108.632 15.0007 108.444 14.463 108.444 13.861C108.444 13.3085 108.598 12.8201 108.905 12.396C109.213 11.9719 109.634 11.6562 110.17 11.449C109.763 11.2317 109.446 10.936 109.218 10.5611C108.999 10.1859 108.89 9.76674 108.89 9.3029C108.89 8.74062 109.064 8.22756 109.411 7.7641C109.758 7.30026 110.284 6.93034 110.988 6.65393C111.692 6.3779 112.555 6.23969 113.576 6.23969C114.251 6.23969 114.911 6.30861 115.555 6.44681C116.2 6.57517 116.76 6.75275 117.236 6.97956L116.567 8.81483C115.654 8.39038 114.688 8.17834 113.666 8.17834C112.892 8.17834 112.307 8.29685 111.91 8.5335C111.524 8.7603 111.33 9.07117 111.33 9.46571C111.33 9.83072 111.459 10.1121 111.717 10.3093C111.985 10.4968 112.387 10.5907 112.922 10.5907H115.764V12.485H112.773C112.168 12.485 111.702 12.5884 111.375 12.7955C111.047 13.0026 110.884 13.3036 110.884 13.6982C110.884 14.1128 111.092 14.4384 111.509 14.6751C111.935 14.9019 112.585 15.0155 113.458 15.0155C114.072 15.0155 114.688 14.9367 115.302 14.7788C115.917 14.6111 116.438 14.379 116.864 14.0832L117.608 15.8886ZM126.671 9.31766C125.778 8.80498 124.821 8.47443 123.799 8.32638V16.7765H121.389V8.32638C120.368 8.47443 119.406 8.80498 118.503 9.31766L117.685 7.52707C118.399 7.103 119.172 6.78228 120.006 6.56532C120.839 6.34836 121.697 6.23969 122.579 6.23969C123.472 6.23969 124.335 6.34836 125.168 6.56532C126.011 6.78228 126.784 7.103 127.489 7.52707L126.671 9.31766ZM138.032 6.41728V16.7765H135.696V15.5187C134.982 16.4755 133.931 16.9541 132.542 16.9541C131.313 16.9541 130.351 16.5694 129.656 15.7996C128.972 15.0204 128.63 13.9155 128.63 12.485V6.41728H131.04V12.4108C131.04 13.2396 131.233 13.8659 131.62 14.2904C132.017 14.7046 132.552 14.9117 133.227 14.9117C133.951 14.9117 134.531 14.6898 134.968 14.2461C135.404 13.7921 135.622 13.126 135.622 12.248V6.41728H138.032ZM147.286 16.7765L145.277 13.8909H145.158H143.06V16.7765H140.651V6.41728H145.158C146.081 6.41728 146.879 6.57024 147.554 6.87619C148.238 7.18175 148.764 7.61605 149.131 8.17834C149.497 8.74062 149.681 9.40665 149.681 10.176C149.681 10.9458 149.493 11.6119 149.116 12.1741C148.749 12.7266 148.223 13.1507 147.539 13.4467L149.874 16.7765H147.286ZM147.241 10.176C147.241 9.59408 147.053 9.1503 146.676 8.84436C146.299 8.52857 145.749 8.37068 145.025 8.37068H143.06V11.9818H145.025C145.749 11.9818 146.299 11.8239 146.676 11.5081C147.053 11.1923 147.241 10.7486 147.241 10.176Z" fill="#9095A0"/>
</g>
</svg>
