<svg width="13" height="13" viewBox="0 0 13 13" fill="none" xmlns="http://www.w3.org/2000/svg">
<path d="M11.2272 0L1.77272 0C0.793675 0 0 0.793675 0 1.77272L0 11.2272C0 12.2063 0.793675 13 1.77272 13L11.2272 13C12.2063 13 13 12.2063 13 11.2272L13 1.77272C13 0.793675 12.2063 0 11.2272 0ZM4.72726 4.72726L11.8181 4.72726V7.68179L4.72726 7.68179L4.72726 4.72726ZM3.54544 7.68179L1.18181 7.68179L1.18181 4.72726L3.54544 4.72726L3.54544 7.68179ZM1.18181 11.2272L1.18181 8.86361H3.54544L3.54544 11.8181H1.77272C1.44637 11.8181 1.18181 11.5536 1.18181 11.2272ZM11.2272 11.8181L4.72726 11.8181L4.72726 8.86361L11.8181 8.86361L11.8181 11.2272C11.8181 11.5536 11.5536 11.8181 11.2272 11.8181Z" fill="#14923E"/>
</svg>
