<svg width="36" height="36" viewBox="0 0 36 36" fill="none" xmlns="http://www.w3.org/2000/svg">
<path d="M18.0001 26.6901C22.7994 26.6901 26.6901 22.7994 26.6901 18.0001C26.6901 13.2007 22.7994 9.31006 18.0001 9.31006C13.2007 9.31006 9.31006 13.2007 9.31006 18.0001C9.31006 22.7994 13.2007 26.6901 18.0001 26.6901Z" stroke="#171A1F" stroke-width="1.896" stroke-miterlimit="10" stroke-linecap="square"/>
<path d="M18.0001 23.5002C18.4364 23.5002 18.7901 23.1465 18.7901 22.7102C18.7901 22.2739 18.4364 21.9202 18.0001 21.9202C17.5638 21.9202 17.2101 22.2739 17.2101 22.7102C17.2101 23.1465 17.5638 23.5002 18.0001 23.5002Z" fill="#171A1F"/>
<path d="M16.3035 13.7149C17.8677 13.0237 19.8916 13.1058 20.5829 14.2245C21.2741 15.3431 20.797 16.6442 19.612 17.6483C18.427 18.6524 17.9996 19.1975 17.9996 19.9875" stroke="#171A1F" stroke-width="1.896" stroke-miterlimit="10" stroke-linecap="round"/>
</svg>
