<svg width="36" height="36" viewBox="0 0 36 36" fill="none" xmlns="http://www.w3.org/2000/svg">
<rect width="36" height="36" rx="18" fill="#F3F4F6"/>
<path d="M23.5301 17.2149V14.8449C23.5301 11.7908 21.0542 9.31494 18.0001 9.31494C14.946 9.31494 12.4701 11.7908 12.4701 14.8449V17.2149C12.4701 19.8219 10.1001 20.4539 10.1001 21.9549C10.1001 23.2979 13.1811 24.3249 18.0001 24.3249C22.8191 24.3249 25.9001 23.2979 25.9001 21.9549C25.9001 20.4539 23.5301 19.8219 23.5301 17.2149Z" stroke="#565E6C" stroke-width="1.896" stroke-miterlimit="10" stroke-linecap="round"/>
<path d="M18.0001 25.8495C17.2014 25.8495 16.4509 25.8226 15.7446 25.7705C16.0536 26.7563 16.967 27.4271 18.0001 27.4271C19.0331 27.4271 19.9465 26.7563 20.2555 25.7705C19.5493 25.8226 18.7988 25.8495 18.0001 25.8495Z" fill="#565E6C"/>
</svg>
