<svg id="img_header_logo" xmlns="http://www.w3.org/2000/svg" width="95" height="32" viewBox="0 0 95 32">
  <rect id="Rectangle_1" data-name="Rectangle 1" width="95" height="32" fill="none"/>
  <path id="Path_1" data-name="Path 1" d="M32.128,13.425a2.16,2.16,0,0,0-1.919-3.15H14.341a2.16,2.16,0,0,0-1.936,1.2L4.517,27.407a2.16,2.16,0,0,0,1.936,3.118H21.991a2.16,2.16,0,0,0,1.92-1.17Z" fill="#2c35e0"/>
  <path id="Path_2" data-name="Path 2" d="M28.937,4.625a2.16,2.16,0,0,0-1.92-3.15H11.151a2.16,2.16,0,0,0-1.936,1.2L1.327,18.607a2.16,2.16,0,0,0,1.936,3.119H18.8a2.16,2.16,0,0,0,1.92-1.17Z" fill="#2c35e0" opacity="0.9"/>
  <path id="Path_3" data-name="Path 3" d="M50.925,13.15a4.626,4.626,0,0,1-.583,2.268,4.125,4.125,0,0,1-1.793,1.706,6.455,6.455,0,0,1-3.067.648H42.955v5.789H39.931V8.484h5.551a6.708,6.708,0,0,1,2.981.6A4.145,4.145,0,0,1,50.3,10.752,4.616,4.616,0,0,1,50.925,13.15Zm-5.573,2.182a2.654,2.654,0,0,0,1.858-.562,2.145,2.145,0,0,0,.6-1.62q0-2.2-2.462-2.2h-2.4v4.385Zm12.6,8.424A6.374,6.374,0,0,1,54.843,23a5.671,5.671,0,0,1-2.182-2.182,6.577,6.577,0,0,1-.778-3.24,6.436,6.436,0,0,1,.8-3.24,5.627,5.627,0,0,1,2.225-2.16,6.7,6.7,0,0,1,6.264,0,5.481,5.481,0,0,1,2.2,2.16,6.3,6.3,0,0,1,.821,3.24,6.175,6.175,0,0,1-.842,3.24A5.74,5.74,0,0,1,61.107,23,6.545,6.545,0,0,1,57.954,23.756Zm0-2.635a3.152,3.152,0,0,0,1.534-.389,2.957,2.957,0,0,0,1.166-1.21,4.039,4.039,0,0,0,.432-1.944,3.538,3.538,0,0,0-.907-2.614,3.027,3.027,0,0,0-4.363,0,3.646,3.646,0,0,0-.864,2.614,3.786,3.786,0,0,0,.842,2.635A2.859,2.859,0,0,0,57.954,21.12Zm11.053-7.668a4.127,4.127,0,0,1,3.672-2.03V14.6h-.8a3.1,3.1,0,0,0-2.16.67,3.117,3.117,0,0,0-.713,2.333v5.962H65.982V11.595h3.024Zm8.8.626v5.789a1.211,1.211,0,0,0,.281.886,1.522,1.522,0,0,0,.994.259h1.4v2.549h-1.9q-3.823,0-3.823-3.715V14.079H73.333V11.595h1.426V8.636H77.8v2.959h2.678v2.484Zm3.644,3.456a7.013,7.013,0,0,1,.713-3.218,5.4,5.4,0,0,1,1.966-2.16,5.288,5.288,0,0,1,2.786-.756,4.812,4.812,0,0,1,2.333.54,4.728,4.728,0,0,1,1.62,1.361V11.595h3.046V23.561H90.865v-1.75a4.57,4.57,0,0,1-1.62,1.4,4.94,4.94,0,0,1-2.354.54,5.139,5.139,0,0,1-2.765-.778A5.564,5.564,0,0,1,82.161,20.8,7.2,7.2,0,0,1,81.448,17.535Zm9.418.043a3.815,3.815,0,0,0-.432-1.879,2.956,2.956,0,0,0-1.166-1.21,3.122,3.122,0,0,0-3.132-.022,3.147,3.147,0,0,0-1.166,1.21,3.768,3.768,0,0,0-.432,1.858,4.021,4.021,0,0,0,.432,1.9,3.316,3.316,0,0,0,1.166,1.231,3.019,3.019,0,0,0,1.555.432,3.181,3.181,0,0,0,1.577-.41,3.143,3.143,0,0,0,1.166-1.21A3.941,3.941,0,0,0,90.865,17.578Z" fill="#263238"/>
</svg>
