<svg width="20" height="20" viewBox="0 0 20 20" fill="none" xmlns="http://www.w3.org/2000/svg">
<path d="M17.85 6.8001C17.85 6.8001 17.7 5.7001 17.2 5.2001C16.6 4.5501 15.9 4.5501 15.6 4.5001C13.35 4.3501 10 4.3501 10 4.3501C10 4.3501 6.65 4.3501 4.4 4.5001C4.1 4.5501 3.4 4.5501 2.8 5.2001C2.3 5.7001 2.15 6.8001 2.15 6.8001C2.15 6.8001 2 8.1001 2 9.4001L2 10.6001C2 11.9001 2.15 13.2001 2.15 13.2001C2.15 13.2001 2.3 14.3001 2.8 14.8001C3.4 15.4501 4.2 15.4001 4.55 15.5001C5.85 15.6001 10 15.6501 10 15.6501C10 15.6501 13.35 15.6501 15.6 15.5001C15.9 15.4501 16.6 15.4501 17.2 14.8001C17.7 14.3001 17.85 13.2001 17.85 13.2001C17.85 13.2001 18 11.9001 18 10.6001V9.4001C18 8.1001 17.85 6.8001 17.85 6.8001ZM8.35 12.1001L8.35 7.6001L12.65 9.8501L8.35 12.1001Z" fill="#FF0000"/>
</svg>
