<svg width="98" height="57" viewBox="0 0 98 57" fill="none" xmlns="http://www.w3.org/2000/svg">
<mask id="mask0_1_1324" style="mask-type:luminance" maskUnits="userSpaceOnUse" x="31" y="-1" width="37" height="36">
<path d="M67.0403 -0.433874H31.9558V34.4948H67.0403V-0.433874Z" fill="white"/>
</mask>
<g mask="url(#mask0_1_1324)">
<path d="M58.5452 3.60523L57.9368 2.08308C57.8293 1.76692 57.7045 1.45639 57.5638 1.15297C57.4774 1.01946 57.3759 0.89602 57.2614 0.785307C56.988 0.496388 56.6398 0.287102 56.254 0.180237C55.8683 0.0730769 55.4602 0.0724858 55.0742 0.178462C54.7676 0.276446 54.4673 0.391599 54.1746 0.524218L52.6368 1.18967C51.6219 1.62513 50.5266 1.84981 49.4195 1.84981C48.3124 1.84981 47.2172 1.62513 46.2022 1.18967L44.7577 0.568321C44.7577 0.568321 43.944 0.178461 43.638 0.0940944C43.2625 0.0120959 42.8716 0.0301539 42.5055 0.146491C42.1394 0.262828 41.8114 0.473301 41.5552 0.755707C41.4335 0.881813 41.3272 1.02124 41.2381 1.17132C41.1076 1.42117 40.8647 2.10528 40.8647 2.10528L40.2675 3.60168C40.0676 4.10048 39.8178 4.57826 39.5211 5.02822C40.0029 4.94355 40.4995 5.01164 40.9396 5.223L43.2387 6.21201L45.2169 7.04295L45.2915 7.07611L47.6092 8.06867C48.1844 8.31348 48.8042 8.43959 49.4307 8.43959C50.0572 8.43959 50.677 8.31348 51.2521 8.06867L53.5699 7.0687L53.6445 7.0394L55.5856 6.20461L57.8846 5.2156C58.325 5.00098 58.8237 4.9326 59.3067 5.02081C59.0058 4.575 58.7506 4.10077 58.5452 3.60523Z" fill="#9095A0"/>
</g>
<mask id="mask1_1_1324" style="mask-type:luminance" maskUnits="userSpaceOnUse" x="31" y="-1" width="37" height="36">
<path d="M67.0708 -0.147124H31.9862V34.7816H67.0708V-0.147124Z" fill="white"/>
</mask>
<g mask="url(#mask1_1_1324)">
<path d="M63.107 26.3714L64.652 25.7758L65.5963 25.4081C65.7301 25.3208 65.8551 25.221 65.9696 25.1103C66.253 24.8315 66.4608 24.4872 66.5744 24.1089C66.6876 23.7306 66.7031 23.3303 66.6191 22.9446L66.2457 22.077L65.5739 20.5584C65.3561 20.0679 65.1897 19.5566 65.0776 19.0327C64.8463 17.9513 64.8463 16.8344 65.0776 15.753C65.1891 15.2279 65.3555 14.7152 65.5739 14.2235L66.2046 12.7969L66.6861 11.7123C66.7487 11.3417 66.7203 10.9619 66.6034 10.6046C66.4865 10.247 66.2847 9.92224 66.0143 9.657C65.9186 9.56139 65.8138 9.47524 65.7008 9.39976L64.6448 8.98799L63.1254 8.40334C62.6194 8.2056 62.1343 7.95931 61.6773 7.66802C61.7619 8.14166 61.6912 8.6298 61.4758 9.0614L60.4718 11.3298L59.6284 13.2418L59.5946 13.3153L58.5869 15.5985C58.3368 16.1648 58.2075 16.7755 58.2075 17.393C58.2075 18.0102 58.3368 18.6209 58.5869 19.1872L59.5985 21.4704L59.632 21.5438L60.4793 23.4558L61.4834 25.7207C61.6975 26.1541 61.7667 26.6431 61.6812 27.1177C62.1298 26.8225 62.6074 26.5724 63.107 26.3714Z" fill="#9095A0"/>
</g>
<mask id="mask2_1_1324" style="mask-type:luminance" maskUnits="userSpaceOnUse" x="31" y="0" width="37" height="36">
<path d="M67.0452 0.150565H31.9607V35.0793H67.0452V0.150565Z" fill="white"/>
</mask>
<g mask="url(#mask2_1_1324)">
<path d="M40.2543 31.1394L40.8627 32.6615C40.8627 32.6615 41.1125 33.3746 41.2358 33.5952C41.323 33.7281 41.4245 33.8512 41.5381 33.9628C41.8118 34.2515 42.1601 34.4608 42.5455 34.5682C42.9309 34.6757 43.339 34.6774 43.7254 34.5732C44.0317 34.4735 44.3319 34.3568 44.6249 34.2239L46.1664 33.5585C47.1816 33.1263 48.276 32.9034 49.3818 32.9034C50.4877 32.9034 51.5821 33.1263 52.5973 33.5585L54.0418 34.1798C54.0418 34.1798 54.8553 34.5732 55.1615 34.6579C55.5376 34.7378 55.9285 34.7186 56.2946 34.6025C56.661 34.4862 56.9896 34.2772 57.2479 33.996C57.3675 33.8678 57.4726 33.7275 57.5615 33.5768C57.7019 33.2719 57.8264 32.9602 57.9345 32.6432L58.5317 31.1465C58.7317 30.6477 58.9818 30.1699 59.2784 29.7199C58.7966 29.8043 58.3 29.7362 57.8599 29.5252L55.5609 28.5361L53.6198 27.7016L53.5452 27.6685L51.2275 26.6756C50.6526 26.4302 50.0328 26.3035 49.406 26.3035C48.7795 26.3035 48.1597 26.4302 47.5845 26.6756L45.2668 27.672L45.1922 27.7052L43.2514 28.5397L40.9521 29.529C40.5111 29.741 40.0127 29.8079 39.53 29.7199C39.8185 30.1684 40.061 30.6438 40.2543 31.1394Z" fill="#9095A0"/>
</g>
<mask id="mask3_1_1324" style="mask-type:luminance" maskUnits="userSpaceOnUse" x="31" y="-1" width="37" height="36">
<path d="M67.0078 -0.147984H31.9233V34.7807H67.0078V-0.147984Z" fill="white"/>
</mask>
<g mask="url(#mask3_1_1324)">
<path d="M35.689 8.36137L34.14 8.95696L33.1958 9.32463C33.0619 9.41047 32.9369 9.50875 32.8227 9.61887C32.5394 9.89743 32.3316 10.2417 32.218 10.62C32.1044 10.9983 32.089 11.3986 32.1733 11.7843L32.5463 12.6519L33.2181 14.1705C33.4362 14.661 33.6026 15.1723 33.7147 15.6962C34.0702 17.3149 33.9047 19.0025 33.2408 20.5238L32.6137 21.9468L32.121 23.0314C32.0594 23.402 32.0884 23.7815 32.2053 24.1388C32.3219 24.4961 32.5234 24.8212 32.7928 25.0867C32.8892 25.1826 32.994 25.2699 33.1063 25.3478L34.1627 25.7557L35.6854 26.3442C36.1916 26.5411 36.6768 26.7874 37.1335 27.0795C37.0456 26.605 37.1147 26.1151 37.3313 25.6823L38.3354 23.4174L39.1827 21.5054L39.2162 21.432L40.2203 19.1488C40.4704 18.5828 40.5997 17.9721 40.5997 17.3546C40.5997 16.7371 40.4704 16.1264 40.2203 15.5604L39.2126 13.2771L39.1788 13.2034L38.3318 11.2917L37.3464 9.02298C37.1314 8.5899 37.0634 8.10027 37.1522 7.62604C36.691 7.91881 36.2007 8.1651 35.689 8.36137Z" fill="#9095A0"/>
</g>
<mask id="mask4_1_1324" style="mask-type:luminance" maskUnits="userSpaceOnUse" x="31" y="-1" width="37" height="36">
<path d="M67.0196 -0.360988H31.9351V34.5677H67.0196V-0.360988Z" fill="white"/>
</mask>
<g mask="url(#mask4_1_1324)">
<path d="M46.1625 1.11842L44.6286 0.456511C44.6286 0.456511 43.9342 0.125849 43.688 0.0559878C43.5312 0.0213531 43.3708 0.00537156 43.2101 0.00803577C42.8069 -0.00558131 42.4072 0.0900315 42.055 0.284519C41.7031 0.479006 41.4119 0.764967 41.2135 1.11102C41.0649 1.39727 40.9341 1.69182 40.8214 1.99347L40.2019 3.54877C40.0034 4.05172 39.7533 4.53334 39.4555 4.98626C38.8368 5.91933 38.0285 6.71534 37.0815 7.32485C36.6206 7.61821 36.1303 7.8645 35.6186 8.06017L34.1255 8.63357C34.1255 8.63357 33.2634 8.92781 33.0058 9.06754C32.6795 9.27446 32.4143 9.56249 32.2373 9.90262C32.0603 10.243 31.9778 10.6234 31.9981 11.005C32.0032 11.1817 32.0295 11.3567 32.0763 11.5272C32.1624 11.7957 32.4908 12.4464 32.4908 12.4464L33.1514 13.917C33.329 14.319 33.4725 14.7346 33.5806 15.1597C33.5869 15.1855 33.6002 15.2091 33.619 15.2281C33.638 15.247 33.6616 15.2606 33.6875 15.2675C33.7135 15.2743 33.741 15.274 33.7667 15.2666C33.7927 15.2592 33.8159 15.2453 33.8343 15.226C34.1053 14.9483 34.4373 14.7355 34.8049 14.6047L37.1601 13.6929L39.1495 12.9244L39.2277 12.8948L41.5977 11.9757C42.1901 11.7477 42.728 11.4014 43.1775 10.9582C43.6273 10.5154 43.9789 9.98551 44.2106 9.40205L45.1436 7.06375L45.1736 6.98649L45.9535 5.02682L46.8793 2.70688C47.0122 2.34455 47.2279 2.01744 47.51 1.75072C47.5309 1.73326 47.5463 1.71047 47.5544 1.68442C47.5626 1.65866 47.5632 1.63113 47.5562 1.60508C47.5493 1.57873 47.5348 1.55535 47.5149 1.5367C47.4946 1.51834 47.4698 1.50591 47.4427 1.50088C47.0062 1.40793 46.5782 1.28005 46.1625 1.11842Z" fill="#9095A0"/>
</g>
<mask id="mask5_1_1324" style="mask-type:luminance" maskUnits="userSpaceOnUse" x="31" y="-1" width="37" height="36">
<path d="M67.0688 -0.362402H31.9843V34.5663H67.0688V-0.362402Z" fill="white"/>
</mask>
<g mask="url(#mask5_1_1324)">
<path d="M65.7216 13.9641L66.3898 12.4529L66.8003 11.5266C66.893 11.058 66.8417 10.5731 66.6529 10.1335C66.4638 9.69393 66.146 9.32005 65.7404 9.05925L64.8369 8.7138L63.2583 8.1034C62.7475 7.90802 62.2585 7.66143 61.7987 7.36807C60.8508 6.75856 60.0425 5.96078 59.4251 5.02593C59.1263 4.57361 58.8762 4.09169 58.6787 3.58845L58.0963 2.1178L57.6634 1.01482L57.6408 0.974259C57.4161 0.672315 57.1224 0.426616 56.7832 0.257291C56.444 0.0879654 56.0691 -0.000250631 55.6888 4.53928e-05C55.5499 -0.000842678 55.4112 0.0112967 55.2747 0.0367547L54.2033 0.496478L52.7105 1.13974C52.3036 1.31469 51.8828 1.45589 51.4527 1.56246C51.4255 1.56779 51.4007 1.58022 51.3805 1.59858C51.3606 1.61693 51.3461 1.64061 51.3391 1.66666C51.3322 1.69301 51.3328 1.72054 51.3409 1.74629C51.3491 1.77204 51.3645 1.79513 51.3853 1.8126C51.6675 2.07932 51.8831 2.40642 52.016 2.76846L52.9419 5.08869L53.7218 7.04837L53.7517 7.12534L54.6848 9.46007C54.9165 10.0435 55.2681 10.5734 55.7178 11.0163C56.1673 11.4594 56.7053 11.8058 57.2976 12.034L59.6713 12.9532L59.7498 12.9825L61.7392 13.7509L64.0944 14.6627C64.462 14.7935 64.794 15.0064 65.0646 15.284C65.0825 15.3048 65.1057 15.3199 65.132 15.3279C65.1583 15.3361 65.1861 15.3367 65.2126 15.3296C65.2392 15.3228 65.2634 15.3086 65.2821 15.2888C65.3009 15.2689 65.3132 15.2444 65.3184 15.218C65.418 14.79 65.5528 14.3705 65.7216 13.9641Z" fill="#9095A0"/>
</g>
<mask id="mask6_1_1324" style="mask-type:luminance" maskUnits="userSpaceOnUse" x="31" y="0" width="37" height="36">
<path d="M67.0639 0.0835792H31.9794V35.0123H67.0639V0.0835792Z" fill="white"/>
</mask>
<g mask="url(#mask6_1_1324)">
<path d="M52.6716 33.6321L54.2058 34.2937C54.2058 34.2937 54.9 34.6247 55.1462 34.6945C55.3029 34.7295 55.4633 34.7454 55.624 34.7425C56.0276 34.757 56.4275 34.6617 56.7797 34.4672C57.1319 34.2724 57.4231 33.9861 57.621 33.6392C57.7678 33.3538 57.8986 33.0605 58.0127 32.7606L58.6323 31.2017C58.8301 30.6994 59.0802 30.2189 59.379 29.7678C60.3012 28.3679 61.6457 27.2877 63.2234 26.6794L64.7162 26.1057C65.0965 25.9796 65.4701 25.8348 65.8359 25.672C66.1631 25.4654 66.4289 25.1777 66.6065 24.8372C66.7841 24.4971 66.8672 24.1164 66.8475 23.7343C66.8424 23.559 66.8158 23.385 66.769 23.2159C66.647 22.9015 66.5086 22.5934 66.3549 22.2929L65.694 20.8223C65.5166 20.4203 65.3732 20.0047 65.2647 19.5796C65.2584 19.5538 65.2454 19.5301 65.2264 19.5115C65.2076 19.4925 65.1841 19.4789 65.1581 19.4721C65.1321 19.4653 65.1046 19.4656 65.0787 19.4727C65.053 19.4801 65.0294 19.494 65.011 19.5136C64.7416 19.7927 64.4093 20.0055 64.0408 20.1349L61.6856 21.0467L59.6962 21.8151L59.6176 21.8444L57.2476 22.7674C56.6574 22.9939 56.1209 23.3376 55.6714 23.7772C55.222 24.2171 54.8692 24.7428 54.6351 25.3227L53.7056 27.6646L53.6757 27.7383L52.8958 29.698L51.9699 32.0179C51.837 32.3799 51.6214 32.707 51.3392 32.9737C51.3184 32.9915 51.303 33.0143 51.2948 33.0401C51.2867 33.0661 51.2858 33.0936 51.293 33.1197C51.3 33.1457 51.3145 33.1694 51.3344 33.1878C51.3546 33.2064 51.3794 33.2188 51.4063 33.2239C51.8382 33.3275 52.2611 33.464 52.6716 33.6321Z" fill="#9095A0"/>
</g>
<mask id="mask7_1_1324" style="mask-type:luminance" maskUnits="userSpaceOnUse" x="31" y="0" width="37" height="36">
<path d="M67.0226 0.0784169H31.9381V35.0071H67.0226V0.0784169Z" fill="white"/>
</mask>
<g mask="url(#mask7_1_1324)">
<path d="M33.1214 20.7914L32.4496 22.3026L32.0427 23.2291C32.0125 23.3819 31.9977 23.537 31.998 23.6924C31.9992 24.092 32.1026 24.4848 32.2983 24.835C32.4937 25.1852 32.7756 25.4813 33.1175 25.6962L34.021 26.0416L35.5996 26.652C36.1097 26.8492 36.5985 27.0955 37.0591 27.3874C38.007 27.9972 38.8156 28.7946 39.4328 29.7295C39.7315 30.1821 39.9816 30.6637 40.1795 31.167L40.7615 32.6379L41.1947 33.7409L41.2171 33.7812C41.4412 34.0837 41.7351 34.3297 42.0743 34.499C42.4135 34.6683 42.7887 34.7563 43.169 34.7557C43.3079 34.7566 43.4466 34.7441 43.5834 34.7187L44.6322 34.2702L46.125 33.6195C46.5337 33.4464 46.9557 33.3049 47.3867 33.1965C47.4127 33.1903 47.4366 33.1773 47.4559 33.1589C47.4752 33.1403 47.4888 33.1169 47.4958 33.0914C47.5027 33.0657 47.5024 33.0387 47.4952 33.0133C47.4876 32.9878 47.4734 32.9647 47.4538 32.9467C47.1711 32.6806 46.9551 32.3532 46.8231 31.9908L45.8972 29.6706L45.1173 27.7109L45.0874 27.6375L44.1543 25.2992C43.9224 24.716 43.5704 24.1865 43.1207 23.7436C42.6712 23.3007 42.1335 22.9541 41.5418 22.7253L39.1678 21.8061L39.0896 21.7768L37.1002 21.0083L34.745 20.1001C34.3771 19.9678 34.0451 19.7541 33.7745 19.4752C33.7561 19.456 33.7328 19.4418 33.7068 19.4347C33.6811 19.4273 33.6537 19.427 33.6277 19.4338C33.6017 19.4406 33.5778 19.4542 33.5591 19.4732C33.5404 19.4921 33.5271 19.5155 33.5207 19.5412C33.4229 19.9681 33.2894 20.3864 33.1214 20.7914Z" fill="#9095A0"/>
</g>
<mask id="mask8_1_1324" style="mask-type:luminance" maskUnits="userSpaceOnUse" x="-6" y="-3" width="111" height="66">
<path d="M104.248 -2.1352H-5.24975V62.4509H104.248V-2.1352Z" fill="white"/>
</mask>
<g mask="url(#mask8_1_1324)">
<path d="M2.22812 52.1086C2.25893 52.5434 2.34846 52.9422 2.49617 53.3045C2.65023 53.6609 2.8508 53.9691 3.09728 54.2287C3.34377 54.4886 3.63345 54.6908 3.96632 54.8358C4.2992 54.9747 4.66591 55.0442 5.06644 55.0442C5.41775 55.0442 5.75364 55.0078 6.07413 54.9356C6.40097 54.8631 6.68763 54.7453 6.93411 54.5821C7.1806 54.419 7.37784 54.2077 7.52586 53.9478C7.67357 53.6822 7.74757 53.359 7.74757 52.9783C7.74757 52.634 7.63973 52.3472 7.42406 52.1178C7.21443 51.8821 6.93713 51.6767 6.59187 51.5014C6.24691 51.3265 5.85242 51.1693 5.40868 51.0305C4.96465 50.8916 4.51185 50.7466 4.04939 50.5956C3.59327 50.4446 3.1435 50.2753 2.69977 50.0882C2.25585 49.8949 1.86138 49.6622 1.51624 49.3905C1.17108 49.1125 0.890638 48.7804 0.674903 48.3938C0.465331 48.0072 0.360543 47.5421 0.360543 46.9986C0.360543 46.4427 0.471494 45.9537 0.693391 45.5306C0.915287 45.1017 1.22653 44.7423 1.62716 44.4525C2.03398 44.1627 2.5146 43.9451 3.06949 43.8001C3.63043 43.6491 4.24362 43.5736 4.90937 43.5736C5.79684 43.5736 6.53327 43.7006 7.11897 43.9543C7.71072 44.208 8.18526 44.5372 8.54261 44.9418C8.90025 45.3403 9.15912 45.7843 9.31922 46.2737C9.47961 46.763 9.57506 47.2431 9.60587 47.7144H7.37784C7.34069 47.3094 7.25158 46.9592 7.10961 46.6632C6.97398 46.3672 6.79546 46.1227 6.57344 45.9294C6.35143 45.7361 6.0989 45.594 5.81526 45.5034C5.53193 45.4069 5.22986 45.3586 4.90937 45.3586C4.61969 45.3586 4.33303 45.3888 4.04939 45.4492C3.76605 45.5034 3.51323 45.5972 3.29121 45.7302C3.06949 45.8569 2.89067 46.0259 2.75504 46.2375C2.61942 46.4427 2.55175 46.6964 2.55175 46.9986C2.55175 47.3488 2.65657 47.6448 2.8662 47.8864C3.08188 48.122 3.36219 48.3304 3.70745 48.5116C4.05241 48.6868 4.44691 48.847 4.89094 48.9917C5.33468 49.1309 5.78747 49.2786 6.24993 49.4358C6.71209 49.5868 7.16519 49.7558 7.60892 49.9432C8.05266 50.1305 8.44715 50.36 8.79241 50.6317C9.13737 50.9035 9.41497 51.2297 9.6243 51.6104C9.84028 51.9908 9.94812 52.4469 9.94812 52.9783C9.94812 53.6248 9.82487 54.1896 9.57808 54.6727C9.33794 55.1558 8.99872 55.5575 8.56133 55.8778C8.12968 56.1978 7.61497 56.4394 7.01718 56.6025C6.42543 56.7656 5.77539 56.8473 5.06644 56.8473C4.4315 56.8473 3.81529 56.7384 3.2175 56.5211C2.61941 56.3035 2.08328 55.9894 1.60868 55.5789C1.14026 55.168 0.758121 54.6727 0.462249 54.0928C0.172569 53.507 0.0184864 52.8457 0 52.1086H2.22812ZM23.802 50.1788C23.802 51.1572 23.6694 52.0574 23.4045 52.8788C23.1396 53.6941 22.7511 54.398 22.2397 54.9898C21.7341 55.5759 21.1115 56.0318 20.3721 56.358C19.6323 56.6842 18.785 56.8473 17.8296 56.8473C16.8742 56.8473 16.0266 56.6842 15.2871 56.358C14.5537 56.0259 13.9311 55.5667 13.4194 54.9809C12.9141 54.3888 12.529 53.6852 12.2637 52.8696C12.0049 52.0482 11.8756 51.1483 11.8756 50.1696C11.8756 49.1913 12.0049 48.2973 12.2637 47.4876C12.529 46.6783 12.9141 45.9838 13.4194 45.4039C13.9311 44.824 14.5537 44.3741 15.2871 44.0538C16.0266 43.7338 16.8742 43.5736 17.8296 43.5736C18.785 43.5736 19.6323 43.7367 20.3721 44.0629C21.1115 44.3829 21.7341 44.8329 22.2397 45.4128C22.7511 45.9927 23.1396 46.6875 23.4045 47.4968C23.6694 48.3061 23.802 49.2001 23.802 50.1788ZM21.6202 50.1696C21.6202 49.4026 21.5214 48.72 21.3242 48.122C21.1269 47.5241 20.856 47.0226 20.5107 46.6179C20.1718 46.2073 19.771 45.8962 19.3088 45.6849C18.8527 45.4673 18.3597 45.3586 17.8296 45.3586C17.2934 45.3586 16.7941 45.4673 16.3317 45.6849C15.8758 45.8962 15.478 46.2073 15.1391 46.6179C14.8062 47.0226 14.5413 47.5241 14.3441 48.122C14.1529 48.72 14.0574 49.4026 14.0574 50.1696C14.0574 50.9369 14.1529 51.6225 14.3441 52.2264C14.5413 52.8306 14.8062 53.3439 15.1391 53.7666C15.478 54.1834 15.8758 54.5037 16.3317 54.7272C16.7941 54.9445 17.2934 55.0534 17.8296 55.0534C18.3597 55.0534 18.8527 54.9445 19.3088 54.7272C19.771 54.5037 20.1718 54.1834 20.5107 53.7666C20.856 53.3439 21.1269 52.8306 21.3242 52.2264C21.5214 51.6225 21.6202 50.9369 21.6202 50.1696ZM28.7435 43.8907V54.7H34.9473V56.5303H26.5617V43.8907H28.7435ZM39.6577 43.8907V56.5303H37.4756V43.8907H39.6577ZM52.6148 43.8907V45.6937H48.5375V56.5303H46.3557V45.6937H42.2691V43.8907H52.6148ZM57.3805 43.8907V52.2625C57.3805 52.7036 57.4545 53.0994 57.6025 53.4496C57.7505 53.7938 57.9477 54.0869 58.1942 54.3285C58.4407 54.5641 58.7243 54.7453 59.0448 54.872C59.3714 54.9927 59.7106 55.0534 60.0619 55.0534C60.4377 55.0534 60.8013 54.996 61.1526 54.8811C61.5103 54.7663 61.8278 54.5943 62.1051 54.3646C62.3824 54.1352 62.6044 53.8483 62.7708 53.504C62.9369 53.1598 63.0203 52.7581 63.0203 52.2989V43.8907H65.2021V52.2083C65.2021 52.9632 65.0574 53.6307 64.7678 54.2106C64.4841 54.7846 64.105 55.2677 63.6305 55.6603C63.1559 56.0531 62.6104 56.3488 61.9942 56.5483C61.3777 56.7476 60.7397 56.8473 60.0803 56.8473C59.4517 56.8473 58.8412 56.7476 58.2498 56.5483C57.6641 56.355 57.1433 56.0649 56.6872 55.6783C56.2371 55.2858 55.8768 54.7965 55.6055 54.2106C55.3343 53.6248 55.1986 52.9451 55.1986 52.1719V43.8907H57.3805ZM68.6644 43.8907H73.6753C74.5631 43.8907 75.3582 44.0567 76.0608 44.3892C76.7697 44.7154 77.3705 45.1653 77.8635 45.739C78.3628 46.3068 78.7449 46.9743 79.0101 47.7413C79.275 48.5024 79.4076 49.318 79.4076 50.1877C79.4076 51.0938 79.269 51.9333 78.9914 52.7065C78.7141 53.4798 78.3229 54.1503 77.8173 54.718C77.3119 55.2858 76.7078 55.7298 76.0052 56.0498C75.3026 56.3701 74.526 56.5303 73.6753 56.5303H68.6644V43.8907ZM70.8462 54.7H73.1576C73.7433 54.7 74.2855 54.6032 74.7848 54.4099C75.2841 54.2106 75.7125 53.9208 76.0701 53.5401C76.4335 53.1598 76.7171 52.6914 76.9204 52.1358C77.124 51.574 77.2255 50.9307 77.2255 50.206C77.2255 49.4266 77.121 48.7532 76.9114 48.1854C76.7078 47.6176 76.4244 47.1496 76.0608 46.781C75.7031 46.4125 75.2748 46.1407 74.7758 45.9655C74.2765 45.7843 73.737 45.6937 73.1576 45.6937H70.8462V54.7ZM84.3307 43.8907V56.5303H82.1486V43.8907H84.3307ZM90.2799 43.8907L95.8179 53.504V43.8907H97.9997V56.5303H95.5403L89.9748 46.8263V56.5303H87.7927V43.8907H90.2799Z" fill="#9095A0"/>
</g>
</svg>
