<svg width="48" height="48" viewBox="0 0 48 48" fill="none" xmlns="http://www.w3.org/2000/svg">
<rect x="0.5" y="0.5" width="47" height="47" rx="5.5" fill="#FDF2F2"/>
<rect x="0.5" y="0.5" width="47" height="47" rx="5.5" stroke="#FAFAFB"/>
<path d="M27.3999 15V19.8H32.1999" stroke="#DE3B40" stroke-width="1.44" stroke-miterlimit="10"/>
<path d="M32.1998 22.2V19.8L27.3998 15L17.7998 15V22.2" stroke="#DE3B40" stroke-width="1.44" stroke-miterlimit="10" stroke-linecap="square"/>
<path d="M17.7998 30.6001V33.0001H32.1998V30.6001" stroke="#DE3B40" stroke-width="1.44" stroke-miterlimit="10" stroke-linecap="square"/>
<path d="M23.2839 25.8689C23.2839 26.2517 23.1711 26.5475 22.9455 26.7563C22.7199 26.9651 22.3989 27.0689 21.9831 27.0689H21.7227V28.2059H20.7969V24.7793H21.9831C22.4157 24.7793 22.7409 24.8735 22.9581 25.0631C23.1753 25.2527 23.2839 25.5203 23.2839 25.8689ZM21.7227 26.3147H21.8913C22.0305 26.3147 22.1409 26.2757 22.2231 26.1977C22.3053 26.1197 22.3461 26.0117 22.3461 25.8743C22.3461 25.6427 22.2183 25.5275 21.9615 25.5275H21.7227V26.3147Z" fill="#DE3B40"/>
<path d="M26.7418 26.4197C26.7418 26.9915 26.5846 27.4325 26.2696 27.7415C25.9546 28.0505 25.5124 28.2059 24.9418 28.2059H23.833V24.7793H25.0192C25.5694 24.7793 25.9942 24.9197 26.293 25.2011C26.5918 25.4825 26.7418 25.8887 26.7418 26.4197ZM25.7812 26.4527C25.7812 26.1389 25.7188 25.9061 25.5946 25.7543C25.4704 25.6025 25.282 25.5269 25.0288 25.5269H24.7594V27.4463H24.9658C25.2472 27.4463 25.453 27.3647 25.5844 27.2015C25.7158 27.0383 25.7812 26.7887 25.7812 26.4527Z" fill="#DE3B40"/>
<path d="M28.2699 28.2059H27.3579V24.7793H29.3829V25.5221H28.2699V26.1761H29.2965V26.9189H28.2699V28.2059Z" fill="#DE3B40"/>
<path d="M34 22.2L16 22.2L16 30.6L34 30.6V22.2Z" stroke="#DE3B40" stroke-width="1.44" stroke-miterlimit="10" stroke-linecap="square"/>
</svg>
