<svg width="24" height="24" viewBox="0 0 24 24" fill="none" xmlns="http://www.w3.org/2000/svg">
<path d="M6.85015 17.7747L8.74272 19.2001C9.17472 19.5241 9.42843 20.0315 9.42843 20.5715V21.4287H2.57129V20.5715C2.57129 20.0315 2.825 19.5241 3.257 19.2001L5.14957 17.7747" stroke="#565E6C" stroke-width="2.05714" stroke-miterlimit="10"/>
<path d="M5.99993 18.0001C5.05279 18.0001 4.28564 17.2329 4.28564 16.2858L4.28564 15.4286C4.28564 14.4815 5.05279 13.7144 5.99993 13.7144C6.94707 13.7144 7.71422 14.4815 7.71422 15.4286V16.2858C7.71422 17.2329 6.94707 18.0001 5.99993 18.0001Z" stroke="#565E6C" stroke-width="2.05714" stroke-miterlimit="10" stroke-linecap="square"/>
<path d="M12.8501 6.63184L14.7427 8.05726C15.1747 8.38126 15.4284 8.88869 15.4284 9.42869V10.2858L8.57129 10.2858L8.57129 9.42869C8.57129 8.88869 8.825 8.38126 9.257 8.05726L11.1496 6.63184" stroke="#565E6C" stroke-width="2.05714" stroke-miterlimit="10"/>
<path d="M11.9999 6.85725C11.0528 6.85725 10.2856 6.0901 10.2856 5.14296V4.28582C10.2856 3.33868 11.0528 2.57153 11.9999 2.57153C12.9471 2.57153 13.7142 3.33868 13.7142 4.28582V5.14296C13.7142 6.0901 12.9471 6.85725 11.9999 6.85725Z" stroke="#565E6C" stroke-width="2.05714" stroke-miterlimit="10" stroke-linecap="square"/>
<path d="M18.8501 17.7747L20.7427 19.2001C21.1747 19.5241 21.4284 20.0315 21.4284 20.5715V21.4287H14.5713L14.5713 20.5715C14.5713 20.0315 14.825 19.5241 15.257 19.2001L17.1496 17.7747" stroke="#565E6C" stroke-width="2.05714" stroke-miterlimit="10"/>
<path d="M17.9999 18.0001C17.0528 18.0001 16.2856 17.2329 16.2856 16.2858V15.4286C16.2856 14.4815 17.0528 13.7144 17.9999 13.7144C18.9471 13.7144 19.7142 14.4815 19.7142 15.4286V16.2858C19.7142 17.2329 18.9471 18.0001 17.9999 18.0001Z" stroke="#565E6C" stroke-width="2.05714" stroke-miterlimit="10" stroke-linecap="square"/>
</svg>
