<svg width="16" height="16" viewBox="0 0 16 16" fill="none" xmlns="http://www.w3.org/2000/svg">
<path d="M4.57994 1.72998L11.4199 1.72998C12.0495 1.72998 12.5599 2.24038 12.5599 2.86998L12.5599 13.13C12.5599 13.7596 12.0495 14.27 11.4199 14.27L4.57994 14.27C3.95034 14.27 3.43994 13.7596 3.43994 13.13L3.43994 2.86998C3.43994 2.24038 3.95034 1.72998 4.57994 1.72998Z" stroke="#636AE8" stroke-width="1.368" stroke-miterlimit="10" stroke-linecap="round"/>
<path d="M7.99993 12.5699C8.31473 12.5699 8.56993 12.3147 8.56993 11.9999C8.56993 11.6851 8.31473 11.4299 7.99993 11.4299C7.68513 11.4299 7.42993 11.6851 7.42993 11.9999C7.42993 12.3147 7.68513 12.5699 7.99993 12.5699Z" fill="#636AE8"/>
</svg>
