<svg width="36" height="36" viewBox="0 0 36 36" fill="none" xmlns="http://www.w3.org/2000/svg">
<path d="M23.4001 15.3L23.4001 29.7C23.4001 30.6945 24.2056 31.5 25.2001 31.5C26.1946 31.5 27.0001 30.6945 27.0001 29.7L27.0001 15.3" stroke="#636AE8" stroke-width="2.16" stroke-miterlimit="10" stroke-linecap="round"/>
<path d="M9 15.8247L9 29.6991C9 30.6936 9.8055 31.4991 10.8 31.4991C11.7945 31.4991 12.6 30.6936 12.6 29.6991L12.6 15.8247" stroke="#636AE8" stroke-width="2.16" stroke-miterlimit="10" stroke-linecap="round"/>
<path d="M29.7 4.5V12.6C29.7 14.0913 28.4913 15.3 27 15.3L23.4 15.3C21.9087 15.3 20.7 14.0913 20.7 12.6L20.7 4.5" stroke="#636AE8" stroke-width="2.16" stroke-miterlimit="10" stroke-linecap="round"/>
<path d="M25.2 4.5V11.7" stroke="#636AE8" stroke-width="2.16" stroke-miterlimit="10" stroke-linecap="square"/>
<path d="M10.8 16.2C8.31515 16.2 6.30005 14.1849 6.30005 11.7L6.30005 9C6.30005 6.5151 8.31515 4.5 10.8 4.5C13.2849 4.5 15.3 6.5151 15.3 9V11.7C15.3 14.1849 13.2849 16.2 10.8 16.2Z" stroke="#636AE8" stroke-width="2.16" stroke-miterlimit="10" stroke-linecap="round"/>
</svg>
