<svg width="48" height="48" viewBox="0 0 48 48" fill="none" xmlns="http://www.w3.org/2000/svg">
<rect width="48" height="48" rx="24" fill="#FDF2F2"/>
<path d="M26.4004 15V19.8H31.2004" stroke="#DE3B40" stroke-width="1.44" stroke-miterlimit="10"/>
<path d="M31.1998 22.2V19.8L26.3998 15L16.7998 15V22.2" stroke="#DE3B40" stroke-width="1.44" stroke-miterlimit="10" stroke-linecap="square"/>
<path d="M16.7998 30.6V33H31.1998V30.6" stroke="#DE3B40" stroke-width="1.44" stroke-miterlimit="10" stroke-linecap="square"/>
<path d="M22.2839 25.869C22.2839 26.2518 22.1711 26.5476 21.9455 26.7564C21.7199 26.9652 21.3989 27.069 20.9831 27.069H20.7227V28.206H19.7969V24.7794H20.9831C21.4157 24.7794 21.7409 24.8736 21.9581 25.0632C22.1753 25.2528 22.2839 25.5204 22.2839 25.869ZM20.7227 26.3148H20.8913C21.0305 26.3148 21.1409 26.2758 21.2231 26.1978C21.3053 26.1198 21.3461 26.0118 21.3461 25.8744C21.3461 25.6428 21.2183 25.5276 20.9615 25.5276H20.7227V26.3148Z" fill="#DE3B40"/>
<path d="M25.7418 26.4198C25.7418 26.9916 25.5846 27.4326 25.2696 27.7416C24.9546 28.0506 24.5124 28.206 23.9418 28.206H22.833V24.7794H24.0192C24.5694 24.7794 24.9942 24.9198 25.293 25.2012C25.5918 25.4826 25.7418 25.8888 25.7418 26.4198ZM24.7812 26.4528C24.7812 26.139 24.7188 25.9062 24.5946 25.7544C24.4704 25.6026 24.282 25.527 24.0288 25.527H23.7594V27.4464H23.9658C24.2472 27.4464 24.453 27.3648 24.5844 27.2016C24.7158 27.0384 24.7812 26.7888 24.7812 26.4528Z" fill="#DE3B40"/>
<path d="M27.2694 28.206H26.3574V24.7794H28.3824V25.5222H27.2694V26.1762H28.296V26.919H27.2694V28.206Z" fill="#DE3B40"/>
<path d="M33 22.2L15 22.2L15 30.6L33 30.6V22.2Z" stroke="#DE3B40" stroke-width="1.44" stroke-miterlimit="10" stroke-linecap="square"/>
</svg>
