<svg width="36" height="36" viewBox="0 0 36 36" fill="none" xmlns="http://www.w3.org/2000/svg">
<path d="M22.7098 16.4499C24.455 16.4499 25.8698 15.0351 25.8698 13.2899C25.8698 11.5447 24.455 10.1299 22.7098 10.1299C20.9646 10.1299 19.5498 11.5447 19.5498 13.2899C19.5498 15.0351 20.9646 16.4499 22.7098 16.4499Z" stroke="#424955" stroke-width="1.896" stroke-miterlimit="10" stroke-linecap="square"/>
<path d="M13.2899 16.4499C15.0351 16.4499 16.4499 15.0351 16.4499 13.2899C16.4499 11.5447 15.0351 10.1299 13.2899 10.1299C11.5447 10.1299 10.1299 11.5447 10.1299 13.2899C10.1299 15.0351 11.5447 16.4499 13.2899 16.4499Z" stroke="#424955" stroke-width="1.896" stroke-miterlimit="10" stroke-linecap="square"/>
<path d="M22.7098 25.8698C24.455 25.8698 25.8698 24.455 25.8698 22.7098C25.8698 20.9646 24.455 19.5498 22.7098 19.5498C20.9646 19.5498 19.5498 20.9646 19.5498 22.7098C19.5498 24.455 20.9646 25.8698 22.7098 25.8698Z" stroke="#424955" stroke-width="1.896" stroke-miterlimit="10" stroke-linecap="square"/>
<path d="M13.2899 25.8698C15.0351 25.8698 16.4499 24.455 16.4499 22.7098C16.4499 20.9646 15.0351 19.5498 13.2899 19.5498C11.5447 19.5498 10.1299 20.9646 10.1299 22.7098C10.1299 24.455 11.5447 25.8698 13.2899 25.8698Z" stroke="#424955" stroke-width="1.896" stroke-miterlimit="10" stroke-linecap="square"/>
</svg>
