<svg width="18" height="18" viewBox="0 0 18 18" fill="none" xmlns="http://www.w3.org/2000/svg">
<path d="M8.87847 10.1604C9.5194 10.2278 10.0936 9.7628 10.161 9.12187C10.2283 8.48093 9.76335 7.90674 9.12242 7.83938C8.48148 7.77202 7.90729 8.23698 7.83993 8.87792C7.77256 9.51885 8.23753 10.093 8.87847 10.1604Z" stroke="#323842" stroke-width="1.368" stroke-miterlimit="10" stroke-linecap="square"/>
<path d="M3.6455 9.61047C4.28644 9.67783 4.86063 9.21286 4.92799 8.57193C4.99536 7.93099 4.53039 7.3568 3.88945 7.28944C3.24852 7.22207 2.67433 7.68704 2.60696 8.32798C2.5396 8.96891 3.00457 9.5431 3.6455 9.61047Z" stroke="#323842" stroke-width="1.368" stroke-miterlimit="10" stroke-linecap="square"/>
<path d="M14.1104 10.7104C14.7514 10.7777 15.3256 10.3128 15.3929 9.67184C15.4603 9.03091 14.9953 8.45672 14.3544 8.38935C13.7134 8.32199 13.1393 8.78696 13.0719 9.42789C13.0045 10.0688 13.4695 10.643 14.1104 10.7104Z" stroke="#323842" stroke-width="1.368" stroke-miterlimit="10" stroke-linecap="square"/>
</svg>
