<svg width="20" height="20" viewBox="0 0 20 20" fill="none" xmlns="http://www.w3.org/2000/svg">
<path d="M3.5 16.5L3.5 17.5C3.5 17.8 3.7 18 4 18L16 18C16.3 18 16.5 17.8 16.5 17.5V16.5L3.5 16.5Z" fill="#117B34"/>
<path d="M13 2.80005V5.50005H15.7L13 2.80005Z" fill="#117B34"/>
<path d="M17.5 8.5H16.5V6.5L12.5 6.5C12.2 6.5 12 6.3 12 6L12 2L4 2C3.7 2 3.5 2.2 3.5 2.5L3.5 8.5H2.5C2.2 8.5 2 8.7 2 9L2 15C2 15.3 2.2 15.5 2.5 15.5L17.5 15.5C17.8 15.5 18 15.3 18 15L18 9C18 8.7 17.8 8.5 17.5 8.5ZM6.8 13.5L6.25 12.6L5.65 13.5L4.8 13.5L5.75 12.05L4.85 10.65L5.7 10.65L6.2 11.55L6.7 10.65H7.6L6.7 12.1L7.65 13.5H6.8ZM9.85 13.5H8L8 10.65H8.75L8.75 12.9H9.85V13.5ZM11.05 11.55C11.1 11.6 11.25 11.65 11.5 11.8C11.75 11.9 11.9 12.05 12 12.15C12.1 12.25 12.15 12.45 12.15 12.65C12.15 12.85 12.1 13 12 13.1C11.9 13.2 11.8 13.35 11.6 13.4C11.4 13.45 11.25 13.5 11 13.5C10.8 13.5 10.65 13.5 10.5 13.45C10.35 13.4 10.25 13.4 10.1 13.3L10.1 12.6C10.25 12.7 10.4 12.75 10.55 12.8C10.7 12.85 10.85 12.85 11 12.85C11.1 12.85 11.2 12.85 11.25 12.8C11.3 12.75 11.35 12.7 11.35 12.65C11.35 12.6 11.35 12.6 11.3 12.55C11.25 12.5 11.25 12.5 11.2 12.45C11.15 12.4 11.05 12.35 10.8 12.25C10.6 12.15 10.45 12.1 10.4 12C10.35 11.9 10.25 11.85 10.2 11.75C10.15 11.65 10.15 11.55 10.15 11.4C10.15 11.15 10.25 10.95 10.45 10.8C10.65 10.65 10.9 10.6 11.25 10.6C11.55 10.6 11.85 10.65 12.15 10.8L11.9 11.4C11.65 11.3 11.4 11.2 11.2 11.2C11.1 11.2 11.05 11.2 11 11.25C10.95 11.3 10.95 11.35 10.95 11.4C10.95 11.45 11 11.5 11.05 11.55ZM14.3 13.5L13.75 12.6L13.2 13.5L12.35 13.5L13.3 12.05L12.4 10.65L13.25 10.65L13.75 11.55L14.25 10.65H15.15L14.25 12.1L15.2 13.5H14.3Z" fill="#117B34"/>
</svg>
