<svg width="36" height="36" viewBox="0 0 36 36" fill="none" xmlns="http://www.w3.org/2000/svg">
<path d="M13.2835 23.2849L15.0278 24.5987C15.426 24.8973 15.6598 25.365 15.6598 25.8627L15.6598 26.6527L9.33984 26.6527V25.8627C9.33984 25.365 9.57368 24.8973 9.97184 24.5987L11.7162 23.2849" stroke="#171A1F" stroke-width="1.896" stroke-miterlimit="10" stroke-linecap="round"/>
<path d="M12.4999 23.5149C11.627 23.5149 10.9199 22.8079 10.9199 21.9349L10.9199 21.1449C10.9199 20.272 11.627 19.5649 12.4999 19.5649C13.3729 19.5649 14.0799 20.272 14.0799 21.1449L14.0799 21.9349C14.0799 22.8079 13.3729 23.5149 12.4999 23.5149Z" stroke="#171A1F" stroke-width="1.896" stroke-miterlimit="10" stroke-linecap="round"/>
<path d="M18.7835 13.0649L20.5278 14.3787C20.926 14.6773 21.1598 15.145 21.1598 15.6427V16.4327L14.8398 16.4327V15.6427C14.8398 15.145 15.0737 14.6773 15.4718 14.3787L17.2162 13.0649" stroke="#171A1F" stroke-width="1.896" stroke-miterlimit="10" stroke-linecap="round"/>
<path d="M17.9999 13.295C17.127 13.295 16.4199 12.5879 16.4199 11.715V10.925C16.4199 10.052 17.127 9.34497 17.9999 9.34497C18.8729 9.34497 19.5799 10.052 19.5799 10.925V11.715C19.5799 12.5879 18.8729 13.295 17.9999 13.295Z" stroke="#171A1F" stroke-width="1.896" stroke-miterlimit="10" stroke-linecap="round"/>
<path d="M24.2835 23.2849L26.0278 24.5987C26.426 24.8973 26.6598 25.365 26.6598 25.8627V26.6527L20.3398 26.6527V25.8627C20.3398 25.365 20.5737 24.8973 20.9718 24.5987L22.7162 23.2849" stroke="#171A1F" stroke-width="1.896" stroke-miterlimit="10" stroke-linecap="round"/>
<path d="M23.4999 23.5149C22.627 23.5149 21.9199 22.8079 21.9199 21.9349V21.1449C21.9199 20.272 22.627 19.5649 23.4999 19.5649C24.3729 19.5649 25.0799 20.272 25.0799 21.1449V21.9349C25.0799 22.8079 24.3729 23.5149 23.4999 23.5149Z" stroke="#171A1F" stroke-width="1.896" stroke-miterlimit="10" stroke-linecap="round"/>
</svg>
