<svg width="32" height="32" viewBox="0 0 32 32" fill="none" xmlns="http://www.w3.org/2000/svg">
<path d="M16.0006 17.3599C16.7517 17.3599 17.3606 16.751 17.3606 15.9999C17.3606 15.2488 16.7517 14.6399 16.0006 14.6399C15.2495 14.6399 14.6406 15.2488 14.6406 15.9999C14.6406 16.751 15.2495 17.3599 16.0006 17.3599Z" stroke="#171A1F" stroke-width="1.632" stroke-miterlimit="10" stroke-linecap="square"/>
<path d="M9.89027 17.3599C10.6414 17.3599 11.2503 16.751 11.2503 15.9999C11.2503 15.2488 10.6414 14.6399 9.89027 14.6399C9.13917 14.6399 8.53027 15.2488 8.53027 15.9999C8.53027 16.751 9.13917 17.3599 9.89027 17.3599Z" stroke="#171A1F" stroke-width="1.632" stroke-miterlimit="10" stroke-linecap="square"/>
<path d="M22.11 17.3599C22.8611 17.3599 23.47 16.751 23.47 15.9999C23.47 15.2488 22.8611 14.6399 22.11 14.6399C21.3589 14.6399 20.75 15.2488 20.75 15.9999C20.75 16.751 21.3589 17.3599 22.11 17.3599Z" stroke="#171A1F" stroke-width="1.632" stroke-miterlimit="10" stroke-linecap="square"/>
</svg>
