<svg width="36" height="36" viewBox="0 0 36 36" fill="none" xmlns="http://www.w3.org/2000/svg">
<path d="M18 16.1599C16.988 16.1599 16.16 16.9879 16.16 17.9999C16.16 19.0119 16.988 19.8399 18 19.8399C19.012 19.8399 19.84 19.0119 19.84 17.9999C19.84 16.9879 19.012 16.1599 18 16.1599ZM18 10.6399C16.988 10.6399 16.16 11.4679 16.16 12.4799C16.16 13.4919 16.988 14.3199 18 14.3199C19.012 14.3199 19.84 13.4919 19.84 12.4799C19.84 11.4679 19.012 10.6399 18 10.6399ZM18 21.6799C16.988 21.6799 16.16 22.5079 16.16 23.5199C16.16 24.5319 16.988 25.3599 18 25.3599C19.012 25.3599 19.84 24.5319 19.84 23.5199C19.84 22.5079 19.012 21.6799 18 21.6799Z" fill="#9095A0"/>
</svg>
