<svg width="579" height="245" viewBox="0 0 579 245" fill="none" xmlns="http://www.w3.org/2000/svg">
<g clip-path="url(#clip0_1_8215)">
<path d="M148.027 170.087L2.45996 235.623V246.773H576.54V-0.394043L464.446 73.4979C459.004 77.0855 452.483 78.6183 446.032 77.8263L382.883 70.0741C376.35 69.2721 369.749 70.854 364.269 74.5344L213.917 175.52C206.013 180.83 195.961 181.663 187.305 177.727L170.594 170.13C163.421 166.868 155.212 166.853 148.027 170.087Z" fill="#E8618C" fill-opacity="0.1"/>
<path d="M2.45996 235.633L148.027 170.097C155.212 166.863 163.421 166.878 170.594 170.14L187.305 177.737C195.961 181.673 206.013 180.84 213.917 175.53L364.269 74.5444C369.749 70.864 376.35 69.2821 382.883 70.0841L446.032 77.8363C452.483 78.6283 459.004 77.0955 464.446 73.5079L576.54 -0.384033" stroke="#E8618C" stroke-width="1.38688" stroke-linecap="round"/>
</g>
<defs>
<clipPath id="clip0_1_8215">
<rect width="579" height="245" fill="white"/>
</clipPath>
</defs>
</svg>
