<svg width="20" height="20" viewBox="0 0 20 20" fill="none" xmlns="http://www.w3.org/2000/svg">
<path d="M3.5 16.5L3.5 17.5C3.5 17.8 3.7 18 4 18L16 18C16.3 18 16.5 17.8 16.5 17.5V16.5L3.5 16.5Z" fill="#D29211"/>
<path d="M13 2.80005V5.50005H15.7L13 2.80005Z" fill="#D29211"/>
<path d="M17.5 8.5H16.5V6.5L12.5 6.5C12.2 6.5 12 6.3 12 6L12 2L4 2C3.7 2 3.5 2.2 3.5 2.5L3.5 8.5H2.5C2.2 8.5 2 8.7 2 9L2 15C2 15.3 2.2 15.5 2.5 15.5L17.5 15.5C17.8 15.5 18 15.3 18 15L18 9C18 8.7 17.8 8.5 17.5 8.5ZM6.95 12.3C6.75 12.45 6.5 12.55 6.15 12.55H5.9V13.5L5.15 13.5L5.15 10.65L6.15 10.65C6.5 10.65 6.8 10.75 6.95 10.9C7.1 11.05 7.2 11.3 7.2 11.55C7.25 11.85 7.15 12.1 6.95 12.3ZM9.45 12.3C9.25 12.45 9 12.55 8.65 12.55H8.45V13.5H7.7L7.7 10.65H8.7C9.05 10.65 9.35 10.75 9.5 10.9C9.65 11.05 9.75 11.3 9.75 11.55C9.75 11.85 9.65 12.1 9.45 12.3ZM12.15 11.3H11.45L11.45 13.5H10.7L10.7 11.3H10L10 10.65H12.15V11.3ZM14.25 13.5L13.7 12.6L13.15 13.5L12.3 13.5L13.25 12.05L12.35 10.65L13.2 10.65L13.7 11.55L14.2 10.65H15.1L14.2 12.1L15.15 13.5H14.25Z" fill="#D29211"/>
<path d="M6.09502 11.2451H5.89502V11.8951H6.04502C6.14502 11.8951 6.24502 11.8451 6.34502 11.7951C6.44502 11.7451 6.44502 11.6451 6.44502 11.5451C6.44502 11.3451 6.34502 11.2451 6.09502 11.2451Z" fill="#D29211"/>
<path d="M8.64482 11.2451H8.44482V11.8951H8.59482C8.69482 11.8951 8.79482 11.8451 8.89482 11.7951C8.99482 11.7451 8.99482 11.6451 8.99482 11.5451C8.94482 11.3451 8.84482 11.2451 8.64482 11.2451Z" fill="#D29211"/>
</svg>
