<svg width="36" height="36" viewBox="0 0 36 36" fill="none" xmlns="http://www.w3.org/2000/svg">
<path d="M18.0002 16.16C16.9882 16.16 16.1602 16.988 16.1602 18C16.1602 19.012 16.9882 19.84 18.0002 19.84C19.0122 19.84 19.8402 19.012 19.8402 18C19.8402 16.988 19.0122 16.16 18.0002 16.16ZM18.0002 10.64C16.9882 10.64 16.1602 11.468 16.1602 12.48C16.1602 13.492 16.9882 14.32 18.0002 14.32C19.0122 14.32 19.8402 13.492 19.8402 12.48C19.8402 11.468 19.0122 10.64 18.0002 10.64ZM18.0002 21.68C16.9882 21.68 16.1602 22.508 16.1602 23.52C16.1602 24.532 16.9882 25.36 18.0002 25.36C19.0122 25.36 19.8402 24.532 19.8402 23.52C19.8402 22.508 19.0122 21.68 18.0002 21.68Z" fill="#424955"/>
</svg>
