<svg width="36" height="36" viewBox="0 0 36 36" fill="none" xmlns="http://www.w3.org/2000/svg">
<path d="M11.7099 13.2899C12.5825 13.2899 13.2899 12.5825 13.2899 11.7099C13.2899 10.8373 12.5825 10.1299 11.7099 10.1299C10.8373 10.1299 10.1299 10.8373 10.1299 11.7099C10.1299 12.5825 10.8373 13.2899 11.7099 13.2899Z" stroke="#424955" stroke-width="1.896" stroke-miterlimit="10" stroke-linecap="square"/>
<path d="M11.7099 19.5799C12.5825 19.5799 13.2899 18.8725 13.2899 17.9999C13.2899 17.1273 12.5825 16.4199 11.7099 16.4199C10.8373 16.4199 10.1299 17.1273 10.1299 17.9999C10.1299 18.8725 10.8373 19.5799 11.7099 19.5799Z" stroke="#424955" stroke-width="1.896" stroke-miterlimit="10" stroke-linecap="square"/>
<path d="M11.7099 25.87C12.5825 25.87 13.2899 25.1626 13.2899 24.29C13.2899 23.4174 12.5825 22.71 11.7099 22.71C10.8373 22.71 10.1299 23.4174 10.1299 24.29C10.1299 25.1626 10.8373 25.87 11.7099 25.87Z" stroke="#424955" stroke-width="1.896" stroke-miterlimit="10" stroke-linecap="square"/>
<path d="M16.3999 11.71L25.8799 11.71" stroke="#424955" stroke-width="1.896" stroke-miterlimit="10" stroke-linecap="square"/>
<path d="M16.3999 18L25.8799 18" stroke="#424955" stroke-width="1.896" stroke-miterlimit="10" stroke-linecap="square"/>
<path d="M16.3999 24.2898L25.8799 24.2898" stroke="#424955" stroke-width="1.896" stroke-miterlimit="10" stroke-linecap="square"/>
</svg>
