<svg width="20" height="20" viewBox="0 0 20 20" fill="none" xmlns="http://www.w3.org/2000/svg">
<path d="M17.9996 9.99989C17.9989 5.74429 14.6667 2.23405 10.4169 2.01204C6.16713 1.79003 2.48734 4.93396 2.04326 9.16633C1.59918 13.3987 4.54625 17.238 8.74958 17.9029V12.3124H6.71858L6.71858 9.99989L8.74958 9.99989V8.23739C8.74958 6.23239 9.94408 5.12489 11.7711 5.12489C12.3711 5.13321 12.9697 5.18535 13.5621 5.28089L13.5621 7.24989H12.5531C12.2048 7.20363 11.8544 7.31828 11.6008 7.56147C11.3472 7.80465 11.218 8.14997 11.2496 8.49989V9.99989H13.4686L13.1136 12.3124L11.2496 12.3124L11.2496 17.9029C15.1374 17.2879 18.0002 13.9361 17.9996 9.99989Z" fill="#303EFF"/>
</svg>
