<svg width="10" height="15" viewBox="0 0 10 15" fill="none" xmlns="http://www.w3.org/2000/svg">
<path fill-rule="evenodd" clip-rule="evenodd" d="M0.594272 4.32249C0.239273 4.32249 -0.0482261 4.02624 0.00677379 3.67624C0.350523 1.55 1.97052 0 4.78176 0C7.59426 0 9.4905 1.7 9.4905 4.01874C9.4905 5.69874 8.65926 6.87874 7.25301 7.73498C5.87801 8.55873 5.48551 9.13248 5.48551 10.2475V10.285C5.48551 10.6302 5.20569 10.91 4.86051 10.91H3.89802C3.55526 10.91 3.27644 10.634 3.27302 10.2912L3.26927 10.0412C3.21552 8.51498 3.86552 7.53998 5.32551 6.65124C6.61301 5.86124 7.07176 5.23249 7.07176 4.11624C7.07176 2.89249 6.12426 1.99375 4.66426 1.99375C3.40302 1.99375 2.52677 2.65499 2.24177 3.74624C2.15927 4.06374 1.89427 4.32249 1.56677 4.32249L0.594272 4.32249ZM4.37051 15C5.14801 15 5.73926 14.4075 5.73926 13.6375C5.73926 12.865 5.14801 12.2725 4.37051 12.2725C3.61302 12.2725 3.01177 12.865 3.01177 13.6362C3.01177 14.4075 3.61302 15 4.37051 15Z" fill="#565E6C"/>
</svg>
