<svg width="20" height="20" viewBox="0 0 20 20" fill="none" xmlns="http://www.w3.org/2000/svg">
<path d="M9.99984 6.67999C10.9128 6.67999 11.6598 5.93299 11.6598 5.01999C11.6598 4.10699 10.9128 3.35999 9.99984 3.35999C9.08684 3.35999 8.33984 4.10699 8.33984 5.01999C8.33984 5.93299 9.08684 6.67999 9.99984 6.67999ZM9.99984 8.33999C9.08684 8.33999 8.33984 9.08699 8.33984 9.99999C8.33984 10.913 9.08684 11.66 9.99984 11.66C10.9128 11.66 11.6598 10.913 11.6598 9.99999C11.6598 9.08699 10.9128 8.33999 9.99984 8.33999ZM9.99984 13.32C9.08684 13.32 8.33984 14.067 8.33984 14.98C8.33984 15.893 9.08684 16.64 9.99984 16.64C10.9128 16.64 11.6598 15.893 11.6598 14.98C11.6598 14.067 10.9128 13.32 9.99984 13.32Z" fill="#9095A0"/>
</svg>
