<svg width="16" height="16" viewBox="0 0 16 16" fill="none" xmlns="http://www.w3.org/2000/svg">
<path d="M4.56541 11.8542L5.82397 12.8022C6.11125 13.0176 6.27997 13.3551 6.27997 13.7142V14.2842L1.71997 14.2842L1.71997 13.7142C1.71997 13.3551 1.88869 13.0176 2.17597 12.8022L3.43453 11.8542" stroke="white" stroke-width="1.368" stroke-miterlimit="10" stroke-linecap="round"/>
<path d="M3.99999 11.995C3.37014 11.995 2.85999 11.4849 2.85999 10.855L2.85999 10.285C2.85999 9.65517 3.37014 9.14502 3.99999 9.14502C4.62984 9.14502 5.13999 9.65517 5.13999 10.285L5.13999 10.855C5.13999 11.4849 4.62984 11.995 3.99999 11.995Z" stroke="white" stroke-width="1.368" stroke-miterlimit="10" stroke-linecap="round"/>
<path d="M8.56541 4.42432L9.82397 5.37223C10.1113 5.58769 10.28 5.92513 10.28 6.28423V6.85423L5.71997 6.85423V6.28423C5.71997 5.92513 5.88869 5.58769 6.17597 5.37223L7.43453 4.42432" stroke="white" stroke-width="1.368" stroke-miterlimit="10" stroke-linecap="round"/>
<path d="M7.99999 4.56509C7.37014 4.56509 6.85999 4.05494 6.85999 3.42509V2.85509C6.85999 2.22524 7.37014 1.71509 7.99999 1.71509C8.62984 1.71509 9.13999 2.22524 9.13999 2.85509V3.42509C9.13999 4.05494 8.62984 4.56509 7.99999 4.56509Z" stroke="white" stroke-width="1.368" stroke-miterlimit="10" stroke-linecap="round"/>
<path d="M12.5654 11.8542L13.824 12.8022C14.1113 13.0176 14.28 13.3551 14.28 13.7142V14.2842L9.71997 14.2842V13.7142C9.71997 13.3551 9.88869 13.0176 10.176 12.8022L11.4345 11.8542" stroke="white" stroke-width="1.368" stroke-miterlimit="10" stroke-linecap="round"/>
<path d="M12 11.995C11.3701 11.995 10.86 11.4849 10.86 10.855V10.285C10.86 9.65517 11.3701 9.14502 12 9.14502C12.6298 9.14502 13.14 9.65517 13.14 10.285V10.855C13.14 11.4849 12.6298 11.995 12 11.995Z" stroke="white" stroke-width="1.368" stroke-miterlimit="10" stroke-linecap="round"/>
</svg>
