<svg width="147" height="35" viewBox="0 0 147 35" fill="none" xmlns="http://www.w3.org/2000/svg">
<mask id="mask0_1_1229" style="mask-type:luminance" maskUnits="userSpaceOnUse" x="-3" y="-3" width="40" height="40">
<path d="M17.1578 -2.16142L-2.38412 17.2777L17.1578 36.7168L36.6998 17.2777L17.1578 -2.16142Z" fill="white"/>
</mask>
<g mask="url(#mask0_1_1229)">
<path d="M10.0759 10.9713C10.9894 11.8778 11.8039 12.8777 12.5053 13.9544C13.1685 14.9714 13.722 16.0548 14.1557 17.1861C13.7377 18.3083 13.2002 19.3816 12.553 20.3883C11.2202 22.4614 9.46931 24.2345 7.40954 25.5971L7.15371 25.7589C7.208 25.6799 7.25595 25.5983 7.31856 25.5068L7.15161 25.757C5.44535 23.1955 4.52704 20.2003 4.51043 17.1428C4.49382 14.0854 5.37969 11.0997 7.05819 8.5564C7.06335 8.55981 7.0677 8.56399 7.0709 8.56931C8.15453 9.26199 9.16191 10.0671 10.0759 10.9713Z" fill="#9095A0"/>
</g>
<mask id="mask1_1_1229" style="mask-type:luminance" maskUnits="userSpaceOnUse" x="-3" y="-3" width="40" height="40">
<path d="M17.1078 -2.15001L-2.43415 17.2891L17.1078 36.7282L36.6497 17.2891L17.1078 -2.15001Z" fill="white"/>
</mask>
<g mask="url(#mask1_1_1229)">
<path d="M7.00618 8.54959C5.92737 9.23848 4.92666 10.0409 4.02091 10.9425C2.24921 12.6882 0.878154 14.7956 0 17.1224C0.902053 19.4549 2.29312 21.574 4.07981 23.3372C4.99897 24.2502 6.01357 25.0625 7.10594 25.7605C5.40212 23.1974 4.48545 20.2022 4.46922 17.1448C4.45296 14.0877 5.33791 11.102 7.01462 8.55795L7.00618 8.54959Z" fill="#9095A0"/>
</g>
<mask id="mask2_1_1229" style="mask-type:luminance" maskUnits="userSpaceOnUse" x="-3" y="-3" width="40" height="40">
<path d="M17.2138 -2.25015L-2.32819 17.189L17.2138 36.628L36.7557 17.189L17.2138 -2.25015Z" fill="white"/>
</mask>
<g mask="url(#mask2_1_1229)">
<path d="M23.4396 10.0984C22.5382 10.9973 21.5418 11.7967 20.4671 12.483C19.4493 13.1305 18.3647 13.669 17.2312 14.0897C16.1031 13.6606 15.0219 13.1156 14.0056 12.4628C11.9093 11.1116 10.1083 9.35143 8.71314 7.29007L8.54554 7.03601C8.62789 7.0888 8.71024 7.14159 8.80312 7.20045C8.72077 7.14348 8.63629 7.0888 8.5497 7.03183C11.1085 5.36239 14.1114 4.48134 17.1865 4.49767C20.2617 4.51362 23.2743 5.42657 25.8516 7.1226C25.158 8.19885 24.3494 9.19648 23.4396 10.0984Z" fill="#9095A0"/>
</g>
<mask id="mask3_1_1229" style="mask-type:luminance" maskUnits="userSpaceOnUse" x="-3" y="-3" width="40" height="40">
<path d="M17.2138 -2.32048L-2.32819 17.1186L17.2138 36.5577L36.7557 17.1186L17.2138 -2.32048Z" fill="white"/>
</mask>
<g mask="url(#mask3_1_1229)">
<path d="M25.8498 7.05411C25.1443 5.97406 24.3266 4.97035 23.4095 4.06043C21.6366 2.28238 19.5055 0.897761 17.1595 0C14.8223 0.870798 12.7054 2.23187 10.9513 3.99131C10.0439 4.89287 9.2368 5.889 8.54358 6.96297C11.1027 5.29391 14.1061 4.41285 17.1817 4.42918C20.2572 4.44589 23.2702 5.35922 25.8475 7.05601L25.8498 7.05411Z" fill="#9095A0"/>
</g>
<mask id="mask4_1_1229" style="mask-type:luminance" maskUnits="userSpaceOnUse" x="-3" y="-3" width="40" height="40">
<path d="M17.2638 -2.15406L-2.27816 17.285L17.2638 36.7241L36.8057 17.285L17.2638 -2.15406Z" fill="white"/>
</mask>
<g mask="url(#mask4_1_1229)">
<path d="M24.4153 23.427C23.5024 22.5212 22.6885 21.5221 21.988 20.4462C21.3237 19.4284 20.7697 18.3442 20.3356 17.2121C20.7544 16.0949 21.2901 15.0262 21.9341 14.0225C23.2699 11.952 25.0204 10.1793 27.0777 8.81366C27.1594 8.76163 27.2411 8.71416 27.3312 8.6496L27.1686 8.90404L27.3354 8.65378C29.0393 11.2168 29.9559 14.212 29.9724 17.2695C29.9884 20.3266 29.1034 23.3119 27.4267 25.8563C27.4217 25.8533 27.4171 25.8487 27.4141 25.8438C26.3321 25.1458 25.3269 24.3353 24.4153 23.427Z" fill="#9095A0"/>
</g>
<mask id="mask5_1_1229" style="mask-type:luminance" maskUnits="userSpaceOnUse" x="-3" y="-3" width="40" height="40">
<path d="M17.306 -2.14762L-2.23597 17.2915L17.306 36.7306L36.8479 17.2915L17.306 -2.14762Z" fill="white"/>
</mask>
<g mask="url(#mask5_1_1229)">
<path d="M27.4843 25.8692C28.5624 25.1807 29.5627 24.3794 30.4675 23.4782C32.2362 21.7343 33.6037 19.6289 34.478 17.3048C33.5766 14.9719 32.1854 12.8528 30.3984 11.0896C29.4836 10.177 28.4738 9.3639 27.3869 8.66438C29.0904 11.2274 30.0074 14.2226 30.0235 17.2801C30.0399 20.3372 29.1549 23.3229 27.4782 25.8669L27.4843 25.8692Z" fill="#9095A0"/>
</g>
<mask id="mask6_1_1229" style="mask-type:luminance" maskUnits="userSpaceOnUse" x="-3" y="-3" width="40" height="40">
<path d="M17.2128 -2.05012L-2.32918 17.389L17.2128 36.8281L36.7547 17.389L17.2128 -2.05012Z" fill="white"/>
</mask>
<g mask="url(#mask6_1_1229)">
<path d="M11.0611 24.3235C11.9647 23.4212 12.9641 22.6187 14.0422 21.9306C15.0592 21.2816 16.1439 20.7431 17.2777 20.3238C18.4059 20.7507 19.4867 21.2952 20.5014 21.9484C22.5985 23.3004 24.4001 25.0614 25.7962 27.1235C25.847 27.2074 25.9001 27.2894 25.9508 27.3692C25.8707 27.3187 25.7882 27.2659 25.7038 27.215C25.7886 27.2701 25.8707 27.327 25.9573 27.384C23.3979 29.0515 20.3949 29.9311 17.3201 29.914C14.2453 29.8973 11.2329 28.9847 8.65543 27.2887L8.67009 27.2742C9.35854 26.2079 10.1601 25.2186 11.0611 24.3235Z" fill="#9095A0"/>
</g>
<mask id="mask7_1_1229" style="mask-type:luminance" maskUnits="userSpaceOnUse" x="-3" y="-2" width="40" height="39">
<path d="M17.2108 -1.98095L-2.33114 17.4581L17.2108 36.8972L36.7528 17.4581L17.2108 -1.98095Z" fill="white"/>
</mask>
<g mask="url(#mask7_1_1229)">
<path d="M8.65388 27.3666C9.35806 28.4474 10.1754 29.4515 11.0919 30.3622C12.8624 32.1421 14.9916 33.5286 17.3357 34.4291C19.6725 33.5571 21.789 32.1964 23.544 30.4373C24.4519 29.5362 25.2582 28.5393 25.9496 27.4638C23.391 29.134 20.3879 30.0151 17.3124 29.9983C14.2368 29.9813 11.224 29.0672 8.64758 27.3689L8.65388 27.3666Z" fill="#9095A0"/>
</g>
<mask id="mask8_1_1229" style="mask-type:luminance" maskUnits="userSpaceOnUse" x="-6" y="-2" width="157" height="38">
<path d="M150.738 -1.45261H-5.2117V35.9658H150.738V-1.45261Z" fill="white"/>
</mask>
<g mask="url(#mask8_1_1229)">
<path d="M49.7402 7.84453C50.7637 7.84453 51.5566 7.9729 52.119 8.22886C52.6886 8.47836 53.0849 8.80876 53.3086 9.22004C53.5392 9.63132 53.6545 10.0794 53.6545 10.5652C53.6545 11.2461 53.5323 11.856 53.2884 12.3956C53.0513 12.9281 52.7428 13.3864 52.3633 13.7707C51.9835 14.1486 51.5734 14.4418 51.1329 14.6507C50.6992 14.8531 50.2857 14.9678 49.8929 14.9947C50.3537 15.008 50.7805 15.1295 51.1737 15.3585C51.5669 15.5879 51.8853 15.9081 52.1293 16.3193C52.3732 16.7238 52.4954 17.1993 52.4954 17.7454C52.4954 18.6959 52.2579 19.5523 51.7838 20.3141C51.3092 21.069 50.6247 21.6656 49.7299 22.1039C48.8422 22.5421 47.7748 22.7613 46.5275 22.7613H40.6311L43.8231 7.84453H49.7402ZM45.3379 14.7722L44.0976 13.9124H47.4732C48.0424 13.9124 48.5406 13.8182 48.9674 13.6295C49.4011 13.4339 49.7402 13.154 49.9841 12.7898C50.2281 12.426 50.3502 11.9976 50.3502 11.5055C50.3502 11.0539 50.2078 10.7235 49.923 10.5147C49.6386 10.2986 49.1438 10.1907 48.4387 10.1907H44.9111L46.6394 8.80534L45.3379 14.7722ZM46.4157 20.4052C47.2628 20.4052 47.9508 20.1827 48.4795 19.7376C49.0148 19.2925 49.2828 18.6758 49.2828 17.887C49.2828 17.5228 49.2114 17.2194 49.069 16.9767C48.927 16.734 48.7033 16.5521 48.3982 16.4306C48.0932 16.3026 47.6965 16.2384 47.2086 16.2384H43.62L45.1955 15.4698L43.8536 21.7906L42.7251 20.4052H46.4157ZM53.8996 22.7613L57.0816 7.84453H60.2332L57.0511 22.7613H53.8996ZM68.8716 7.84453C69.8951 7.84453 70.688 7.9729 71.2508 8.22886C71.82 8.47836 72.2163 8.80876 72.44 9.22004C72.6706 9.63132 72.7859 10.0794 72.7859 10.5652C72.7859 11.2461 72.6637 11.856 72.4198 12.3956C72.1827 12.9281 71.8742 13.3864 71.4947 13.7707C71.1152 14.1486 70.7048 14.4418 70.2646 14.6507C69.8306 14.8531 69.4171 14.9678 69.0243 14.9947C69.4851 15.008 69.9119 15.1295 70.3051 15.3585C70.6983 15.5879 71.0167 15.9081 71.2607 16.3193C71.5046 16.7238 71.6268 17.1993 71.6268 17.7454C71.6268 18.6959 71.3897 19.5523 70.9152 20.3141C70.4406 21.069 69.7561 21.6656 68.8616 22.1039C67.9736 22.5421 66.9062 22.7613 65.6589 22.7613H59.7625L62.9548 7.84453H68.8716ZM64.4693 14.7722L63.2293 13.9124H66.6046C67.1738 13.9124 67.672 13.8182 68.0988 13.6295C68.5329 13.4339 68.8716 13.154 69.1155 12.7898C69.3595 12.426 69.4816 11.9976 69.4816 11.5055C69.4816 11.0539 69.3392 10.7235 69.0548 10.5147C68.77 10.2986 68.2752 10.1907 67.5705 10.1907H64.0425L65.7708 8.80534L64.4693 14.7722ZM65.5471 20.4052C66.3942 20.4052 67.0822 20.1827 67.6109 19.7376C68.1466 19.2925 68.4142 18.6758 68.4142 17.887C68.4142 17.5228 68.3428 17.2194 68.2008 16.9767C68.0584 16.734 67.8347 16.5521 67.5296 16.4306C67.2246 16.3026 66.8283 16.2384 66.34 16.2384H62.7514L64.3273 15.4698L62.985 21.7906L61.8569 20.4052H65.5471ZM77.4737 10.2716L79.2222 8.77496L77.8906 14.9541L77.3618 14.0643H82.9025L82.384 16.4914H76.8537L77.7585 15.6012L76.4265 21.8308L75.3285 20.3342H82.6891L82.1706 22.7613H73.0512L76.2436 7.84453H85.363L84.8445 10.2716H77.4737ZM87.9312 22.7613H84.8507L88.043 7.84453H93.1874L94.692 21.6288L94.4683 21.7602L97.4369 7.84453H100.508L97.3152 22.7613H92.1402L90.6254 9.01762L90.8899 8.88623L87.9312 22.7613ZM100.006 22.7613L103.199 7.84453H107.977C109.176 7.84453 110.173 8.09062 110.966 8.58279C111.759 9.07497 112.352 9.74601 112.745 10.5955C113.138 11.4382 113.335 12.3854 113.335 13.4373C113.335 14.7722 113.111 16.0091 112.664 17.1487C112.216 18.2812 111.6 19.269 110.813 20.1117C110.034 20.9479 109.136 21.5984 108.119 22.0636C107.102 22.5289 106.025 22.7613 104.886 22.7613H100.006ZM103.382 21.8008L102.253 20.2939H104.947C105.659 20.2939 106.323 20.1151 106.94 19.7577C107.563 19.3939 108.112 18.9051 108.587 18.2914C109.068 17.6713 109.444 16.9665 109.715 16.1777C109.987 15.3821 110.122 14.5496 110.122 13.68C110.122 13.0055 110.014 12.4192 109.796 11.9202C109.58 11.4147 109.251 11.0201 108.81 10.7368C108.37 10.4539 107.814 10.3122 107.143 10.3122H104.439L106.167 8.80534L103.382 21.8008ZM126.235 17.3713C125.836 19.2591 125.056 20.6714 123.897 21.6087C122.745 22.5391 121.339 23.0043 119.678 23.0043C118.119 23.0043 116.919 22.6705 116.079 22.0029C115.239 21.3288 114.818 20.3243 114.818 18.9891C114.818 18.5174 114.859 18.0385 114.94 17.5532C115.028 17.061 115.157 16.4204 115.326 15.6316L117.025 7.84453H120.186L118.397 16.0767C118.302 16.5149 118.224 16.8856 118.163 17.189C118.102 17.4924 118.058 17.7621 118.031 17.9983C118.004 18.2273 117.99 18.4635 117.99 18.7062C117.99 19.3263 118.146 19.7782 118.458 20.0611C118.777 20.3444 119.264 20.4861 119.922 20.4861C120.783 20.4861 121.464 20.24 121.965 19.7478C122.474 19.2488 122.84 18.4734 123.063 17.4218L125.117 7.84453H128.269L126.235 17.3713ZM141.592 7.84453H147L143.808 22.7613H140.809L143.605 9.6955L143.656 9.73576L137.952 22.7613H133.824L133.641 9.70538L133.702 9.675L130.907 22.7613H127.907L131.1 7.84453H136.366L136.254 21.2749H136L141.592 7.84453Z" fill="#9095A0"/>
</g>
</svg>
