<svg width="56" height="216" viewBox="0 0 56 216" fill="none" xmlns="http://www.w3.org/2000/svg">
<path d="M16 26.4L28 16.8L40 26.4" stroke="white" stroke-width="1.92" stroke-miterlimit="10"/>
<path d="M25.5996 39.2V32.8H30.3996V39.2" stroke="white" stroke-width="1.92" stroke-miterlimit="10"/>
<path d="M19.2002 28L19.2002 36.8C19.2002 38.1256 20.2746 39.2 21.6002 39.2H34.4002C35.7258 39.2 36.8002 38.1256 36.8002 36.8V28" stroke="white" stroke-width="1.92" stroke-miterlimit="10" stroke-linecap="square"/>
<path d="M35.7141 84.5713H20.2856C19.8309 84.5713 19.3949 84.3907 19.0734 84.0692C18.7519 83.7477 18.5713 83.3117 18.5713 82.857L18.5713 67.4285H25.4284L27.9999 70.857H37.4284V82.857C37.4284 83.3117 37.2478 83.7477 36.9263 84.0692C36.6048 84.3907 36.1688 84.5713 35.7141 84.5713Z" stroke="#878CED" stroke-width="2.05714" stroke-miterlimit="10" stroke-linecap="square"/>
<path d="M32 118.571H37.4283V115.194C37.4283 114.607 37.1206 114.063 36.6166 113.761L34.1951 112.308" stroke="#878CED" stroke-width="2.05714" stroke-miterlimit="10"/>
<path d="M29.0693 108.456C29.5116 107.35 30.5925 106.572 31.8568 106.572C33.5136 106.572 34.8568 107.915 34.8568 109.572V110.429C34.8568 112.086 33.5136 113.429 31.8568 113.429C31.3879 113.429 30.9662 113.326 30.5711 113.134" stroke="#878CED" stroke-width="2.05714" stroke-miterlimit="10"/>
<path d="M23.5924 116.763L19.695 119.098C18.9981 119.515 18.5713 120.269 18.5713 121.082L18.5713 124.572H33.9999V121.082C33.9999 120.27 33.573 119.516 32.8761 119.098L28.9787 116.763" stroke="#878CED" stroke-width="2.05714" stroke-miterlimit="10"/>
<path d="M26.2857 117.714C23.9191 117.714 22 115.795 22 113.428V111.714C22 109.348 23.9191 107.428 26.2857 107.428C28.6523 107.428 30.5714 109.348 30.5714 111.714V113.428C30.5714 115.795 28.6523 117.714 26.2857 117.714Z" stroke="#878CED" stroke-width="2.05714" stroke-miterlimit="10" stroke-linecap="square"/>
<path d="M28.0001 147.849L30.6487 153.214L36.5716 154.075L32.2859 158.253L33.2973 164.151L28.0001 161.367L22.703 164.151L23.7144 158.253L19.4287 154.075L25.3516 153.214L28.0001 147.849Z" stroke="#878CED" stroke-width="2.05714" stroke-miterlimit="10" stroke-linecap="square"/>
<path d="M28 190.857V196H33.1429" stroke="#878CED" stroke-width="2.05714" stroke-miterlimit="10" stroke-linecap="square"/>
<path d="M20.2567 205.317L19.6318 200.348L24.5107 201.708" stroke="#878CED" stroke-width="2.05714" stroke-miterlimit="10" stroke-linecap="square"/>
<path d="M19.6316 200.348C20.6937 202.394 22.4688 203.981 24.6211 204.807C26.7735 205.633 29.1539 205.642 31.3124 204.832C33.4709 204.022 35.2578 202.449 36.3353 200.411C37.4128 198.373 37.7062 196.01 37.16 193.771C36.6139 191.531 35.266 189.569 33.3713 188.255C31.4765 186.942 29.1662 186.368 26.8772 186.643C24.5881 186.917 22.479 188.021 20.9485 189.745C19.4181 191.469 18.5724 193.694 18.5713 196" stroke="#878CED" stroke-width="2.05714" stroke-miterlimit="10"/>
</svg>
