<svg width="24" height="24" viewBox="0 0 24 24" fill="none" xmlns="http://www.w3.org/2000/svg">
<path d="M13.7143 2.57153L7.71425 2.57153L5.14282 12.0001L10.2857 12.0001L8.57139 18.8572L17.1428 8.57153L12 8.57153L13.7143 2.57153Z" stroke="#565E6C" stroke-width="2.05714" stroke-miterlimit="10" stroke-linecap="square"/>
<path d="M19.0132 21.4286L18.6515 20.0571H16.2661L15.8941 21.4286H13.7144L16.1144 14.0571L18.7612 14.0571L21.1869 21.4286H19.0132ZM18.2418 18.4286L17.9229 17.22C17.8492 16.952 17.7598 16.6054 17.6546 16.1803C17.5495 15.7551 17.4801 15.4506 17.4464 15.2666C17.4155 15.438 17.3561 15.7191 17.2681 16.11C17.1801 16.5008 16.9832 17.2723 16.6775 18.4243L18.2418 18.4286Z" fill="#565E6C"/>
</svg>
