<svg width="20" height="20" viewBox="0 0 20 20" fill="none" xmlns="http://www.w3.org/2000/svg">
<path d="M12 2.5L12 6.5L16 6.5" stroke="#DE3B40" stroke-width="1.2" stroke-miterlimit="10"/>
<path d="M16 8.5V6.5L12 2.5L4 2.5L4 8.5" stroke="#DE3B40" stroke-width="1.2" stroke-miterlimit="10" stroke-linecap="square"/>
<path d="M4 15.5L4 17.5L16 17.5V15.5" stroke="#DE3B40" stroke-width="1.2" stroke-miterlimit="10" stroke-linecap="square"/>
<path d="M8.57641 11.5525C8.57641 11.8715 8.48241 12.118 8.29441 12.292C8.10641 12.466 7.83891 12.5525 7.49241 12.5525H7.27541L7.27541 13.5H6.50391L6.50391 10.6445H7.49241C7.85291 10.6445 8.12391 10.723 8.30491 10.881C8.48591 11.039 8.57641 11.262 8.57641 11.5525ZM7.27541 11.924H7.41591C7.53191 11.924 7.62391 11.8915 7.69241 11.8265C7.76091 11.7615 7.79491 11.6715 7.79491 11.557C7.79491 11.364 7.68841 11.268 7.47441 11.268H7.27541V11.924Z" fill="#DE3B40"/>
<path d="M11.4499 12.0115C11.4499 12.488 11.3189 12.8555 11.0564 13.113C10.7939 13.3705 10.4254 13.5 9.94988 13.5H9.02588V10.6445H10.0144C10.4729 10.6445 10.8269 10.7615 11.0759 10.996C11.3249 11.2305 11.4499 11.569 11.4499 12.0115ZM10.6494 12.039C10.6494 11.7775 10.5974 11.5835 10.4939 11.457C10.3904 11.3305 10.2334 11.2675 10.0224 11.2675H9.79788V12.867H9.96988C10.2044 12.867 10.3759 12.799 10.4854 12.663C10.5949 12.527 10.6494 12.319 10.6494 12.039Z" fill="#DE3B40"/>
<path d="M12.7263 13.5H11.9663V10.6445H13.6538V11.2635H12.7263V11.8085H13.5818V12.4275H12.7263V13.5Z" fill="#DE3B40"/>
<path d="M17.5 8.5L2.5 8.5L2.5 15.5L17.5 15.5V8.5Z" stroke="#DE3B40" stroke-width="1.2" stroke-miterlimit="10" stroke-linecap="square"/>
</svg>
