<svg width="143" height="29" viewBox="0 0 143 29" fill="none" xmlns="http://www.w3.org/2000/svg">
<mask id="mask0_1_1279" style="mask-type:luminance" maskUnits="userSpaceOnUse" x="-1" y="0" width="31" height="29">
<path d="M29.9767 0.0865788H-0.114866V28.6166H29.9767V0.0865788Z" fill="white"/>
</mask>
<g mask="url(#mask0_1_1279)">
<path d="M27.0355 7.96401C25.1097 5.91423 22.3822 4.87376 18.9252 4.87376H17.2762C17.5946 6.06205 17.7453 7.28835 17.724 8.51806C17.724 8.65449 17.724 8.78635 17.724 8.91822H18.9277C21.2483 8.91822 22.9286 9.51065 24.0697 10.7236C25.2106 11.9366 25.8199 13.9963 25.8199 16.7727C25.8199 19.5487 25.2323 21.5361 24.0769 22.7518C22.9214 23.9674 21.2531 24.5378 18.9277 24.5378H16.2363C13.9132 24.5378 12.2281 23.953 11.087 22.7518C9.94594 21.5505 9.37057 19.5943 9.34891 16.9213H7.56265C6.79777 16.9254 6.0348 16.8449 5.28775 16.6815C5.28775 16.7103 5.28775 16.7389 5.28775 16.7677C5.28775 20.5868 6.25068 23.5357 8.13802 25.5258C10.0254 27.5156 12.7866 28.5777 16.2387 28.5777H18.9301C22.3846 28.5777 25.1097 27.5517 27.0305 25.5258C28.9517 23.5 29.8835 20.5868 29.8835 16.7677C29.8835 12.9486 28.9204 9.97313 27.0355 7.96401Z" fill="#9095A0"/>
</g>
<mask id="mask1_1_1279" style="mask-type:luminance" maskUnits="userSpaceOnUse" x="-1" y="0" width="31" height="29">
<path d="M29.9482 0.0416634H-0.143337V28.5717H29.9482V0.0416634Z" fill="white"/>
</mask>
<g mask="url(#mask1_1_1279)">
<path d="M17.6907 8.87331C17.6353 11.4483 17.0479 13.3495 15.8997 14.673C14.631 16.1353 12.722 16.8737 10.2232 16.8737H9.31803C9.31803 16.8258 9.31803 16.7779 9.31803 16.7278C9.28862 15.4084 9.46817 14.0928 9.85004 12.8292C10.0934 12.0301 10.5091 11.294 11.0682 10.6715C11.7616 9.94836 12.6449 9.43344 13.6175 9.18492C14.4623 8.96185 15.3338 8.85431 16.2078 8.86609L17.6907 8.87331Z" fill="#9095A0"/>
</g>
<mask id="mask2_1_1279" style="mask-type:luminance" maskUnits="userSpaceOnUse" x="-1" y="-1" width="31" height="30">
<path d="M29.9158 -0.0104312H-0.175735V28.5196H29.9158V-0.0104312Z" fill="white"/>
</mask>
<g mask="url(#mask2_1_1279)">
<path d="M17.2148 4.78054H16.1724C15.102 4.77446 14.0343 4.88961 12.9899 5.12331C11.1065 5.51967 9.38868 6.47691 8.06456 7.86852C6.92827 9.07923 6.13867 10.6377 5.67887 12.5195C5.36737 13.8556 5.21464 15.2236 5.22388 16.5955C3.89154 16.3378 2.68111 15.6511 1.779 14.6415C0.575325 13.2582 0 11.2369 0 8.45601C0 5.67471 0.58499 3.61999 1.78863 2.22231C3.05732 0.750525 4.97836 0 7.49882 0H10.1806C12.7059 0 14.6269 0.750525 15.886 2.23219C16.5053 2.97815 16.9582 3.84685 17.2148 4.78054Z" fill="#9095A0"/>
</g>
<mask id="mask3_1_1279" style="mask-type:luminance" maskUnits="userSpaceOnUse" x="-6" y="-3" width="154" height="35">
<path d="M147.735 -2.97436H-5.69027V31.6359H147.735V-2.97436Z" fill="white"/>
</mask>
<g mask="url(#mask3_1_1279)">
<path d="M45.8326 17.8846H40.3315L39.2821 20.4102H36.4723L41.7534 8.62412H44.4619L49.7598 20.4102H46.8824L45.8326 17.8846ZM44.9696 15.8135L43.0909 11.3013L41.2117 15.8135H44.9696ZM51.1584 8.62412H56.5411C57.8274 8.62412 58.9616 8.87113 59.943 9.36515C60.9362 9.84776 61.7033 10.5325 62.2451 11.4191C62.7982 12.3061 63.0744 13.3385 63.0744 14.5173C63.0744 15.6958 62.7982 16.7286 62.2451 17.6152C61.7033 18.5021 60.9362 19.1926 59.943 19.6862C58.9616 20.1689 57.8274 20.4102 56.5411 20.4102H51.1584V8.62412ZM56.4055 18.1711C57.5905 18.1711 58.5326 17.8455 59.2324 17.1945C59.943 16.5321 60.2987 15.6399 60.2987 14.5173C60.2987 13.3948 59.943 12.5078 59.2324 11.8569C58.5326 11.1945 57.5905 10.8635 56.4055 10.8635H53.9006V18.1711H56.4055ZM65.3119 8.62412H68.0537V20.4102H65.3119V8.62412ZM76.1636 8.62412C77.2131 8.62412 78.1215 8.79817 78.889 9.14626C79.6675 9.49397 80.2658 9.98798 80.6833 10.6279C81.1005 11.2675 81.3095 12.0252 81.3095 12.9008C81.3095 13.7653 81.1005 14.523 80.6833 15.174C80.2658 15.8136 79.6675 16.3076 78.889 16.6557C78.1215 16.9923 77.2131 17.1607 76.1636 17.1607H73.7771V20.4102H71.035V8.62412H76.1636ZM76.0116 14.938C76.8352 14.938 77.4614 14.7643 77.8904 14.4163C78.319 14.0571 78.5333 13.5517 78.5333 12.9008C78.5333 12.2384 78.319 11.7334 77.8904 11.3857C77.4614 11.0262 76.8352 10.8468 76.0116 10.8468H73.7771V14.938H76.0116ZM83.4362 8.62412H86.1783V20.4102H83.4362V8.62412ZM93.0528 20.6123C92.1161 20.6123 91.2077 20.4888 90.3275 20.2418C89.4588 19.9838 88.7589 19.6528 88.2287 19.2485L89.1596 17.1945C89.6673 17.5646 90.2709 17.8622 90.9708 18.0868C91.6703 18.3114 92.3702 18.4235 93.0696 18.4235C93.8482 18.4235 94.4239 18.3114 94.796 18.0868C95.1685 17.8512 95.3549 17.5422 95.3549 17.1607C95.3549 16.8802 95.2418 16.65 95.016 16.4702C94.8017 16.2795 94.5198 16.1282 94.1699 16.0157C93.8314 15.9036 93.3688 15.7801 92.782 15.6452C91.8793 15.432 91.14 15.2188 90.5643 15.0057C89.989 14.7921 89.4924 14.4501 89.0748 13.9785C88.6687 13.5069 88.4655 12.8783 88.4655 12.0925C88.4655 11.4081 88.6519 10.7906 89.024 10.2407C89.3965 9.67941 89.955 9.23594 90.7 8.91027C91.456 8.58498 92.3755 8.42195 93.4589 8.42195C94.2149 8.42195 94.9541 8.51202 95.6762 8.69138C96.3986 8.87113 97.0304 9.12916 97.5722 9.46585L96.7256 11.5369C95.6311 10.9198 94.5366 10.6108 93.4421 10.6108C92.6746 10.6108 92.1046 10.7343 91.7326 10.9813C91.3712 11.2283 91.1909 11.554 91.1909 11.958C91.1909 12.3619 91.3994 12.6652 91.817 12.8673C92.246 13.0581 92.8947 13.2489 93.7638 13.4396C94.6665 13.6528 95.4053 13.8664 95.981 14.0796C96.5563 14.2927 97.0472 14.6294 97.4537 15.0896C97.8713 15.5498 98.0799 16.173 98.0799 16.9585C98.0799 17.6323 97.8881 18.2494 97.5045 18.8107C97.1321 19.361 96.5678 19.7987 95.8118 20.124C95.0558 20.4497 94.1359 20.6123 93.0528 20.6123ZM105.793 20.6123C104.586 20.6123 103.491 20.3543 102.509 19.8379C101.539 19.3104 100.772 18.5861 100.207 17.6657C99.6545 16.7343 99.378 15.6847 99.378 14.5173C99.378 13.3499 99.6545 12.306 100.207 11.3857C100.772 10.4539 101.539 9.72996 102.509 9.21352C103.491 8.68606 104.591 8.42195 105.81 8.42195C106.837 8.42195 107.762 8.6017 108.586 8.96081C109.421 9.31992 110.121 9.83635 110.685 10.5101L108.925 12.1263C108.124 11.2059 107.13 10.7457 105.946 10.7457C105.212 10.7457 104.557 10.9084 103.982 11.234C103.407 11.5483 102.955 11.9918 102.628 12.5641C102.312 13.1368 102.154 13.7877 102.154 14.5173C102.154 15.247 102.312 15.8979 102.628 16.4702C102.955 17.0429 103.407 17.4917 103.982 17.8174C104.557 18.1316 105.212 18.2889 105.946 18.2889C107.13 18.2889 108.124 17.8231 108.925 16.8913L110.685 18.5078C110.121 19.1926 109.421 19.7144 108.586 20.0735C107.751 20.433 106.82 20.6123 105.793 20.6123ZM112.706 8.62412H115.448V20.4102H112.706V8.62412ZM129.296 8.62412V20.4102H127.045L121.138 13.2546V20.4102H118.429V8.62412H120.697L126.588 15.7801V8.62412H129.296ZM140.275 14.3319H142.78V19.114C142.137 19.5966 141.392 19.9671 140.546 20.2251C139.699 20.4831 138.847 20.6123 137.99 20.6123C136.76 20.6123 135.654 20.3543 134.672 19.8379C133.69 19.3104 132.918 18.5861 132.353 17.6657C131.801 16.7343 131.524 15.6847 131.524 14.5173C131.524 13.3499 131.801 12.306 132.353 11.3857C132.918 10.4539 133.696 9.72996 134.689 9.21352C135.682 8.68606 136.799 8.42195 138.04 8.42195C139.079 8.42195 140.021 8.596 140.867 8.94409C141.714 9.29218 142.425 9.79721 143 10.4596L141.24 12.0758C140.393 11.1892 139.372 10.7457 138.176 10.7457C137.42 10.7457 136.748 10.9027 136.162 11.2169C135.575 11.5316 135.118 11.9747 134.791 12.5474C134.464 13.1197 134.3 13.7763 134.3 14.5173C134.3 15.247 134.464 15.8979 134.791 16.4702C135.118 17.0429 135.569 17.4917 136.145 17.8174C136.732 18.1316 137.398 18.2889 138.142 18.2889C138.932 18.2889 139.643 18.1206 140.275 17.7835V14.3319Z" fill="#9095A0"/>
</g>
</svg>
