<svg width="84" height="53" viewBox="0 0 84 53" fill="none" xmlns="http://www.w3.org/2000/svg">
<mask id="mask0_1_1374" style="mask-type:luminance" maskUnits="userSpaceOnUse" x="25" y="0" width="33" height="32">
<path d="M57.564 0.252103H25.7879V31.3927H57.564V0.252103Z" fill="white"/>
</mask>
<g mask="url(#mask0_1_1374)">
<path d="M38.6546 22.5314L38.3252 21.7038C38.0984 21.1314 37.7545 20.6117 37.315 20.1771C36.8757 19.7421 36.3502 19.4021 35.7714 19.1778L34.9347 18.852L34.5878 18.7194L32.6289 17.9611L32.2091 17.7995L30.2092 17.024L28.5679 16.3897C28.4482 16.3472 28.3447 16.2689 28.2728 16.1654C28.2005 16.0619 28.1629 15.9387 28.1656 15.8129C28.1638 15.8072 28.1638 15.8013 28.1656 15.7956C28.1641 15.79 28.1641 15.784 28.1656 15.7784C28.162 15.6525 28.1993 15.5288 28.2716 15.425C28.3438 15.3214 28.4476 15.2432 28.5679 15.2015L30.2119 14.5616L32.2118 13.7858L32.6316 13.6246L31.8241 11.7763L31.792 11.7013L29.8622 12.451L27.5737 13.339C27.0889 13.5044 26.677 13.8301 26.4077 14.2618C26.1828 14.7395 26.0665 15.2602 26.0665 15.787C26.0665 16.3139 26.1828 16.8345 26.4077 17.3122C26.6764 17.7436 27.0889 18.0688 27.5737 18.2321L29.8622 19.1201L31.7892 19.8698L31.8651 19.8986L33.7454 20.6284L34.3983 19.1576L33.7542 20.6254L34.1564 20.781C34.7344 21.0062 35.2596 21.3468 35.6988 21.7811C36.1384 22.2158 36.4826 22.7352 36.7103 23.307L36.8675 23.7047L38.7945 22.8744L38.6546 22.5314Z" fill="#9095A0"/>
</g>
<mask id="mask1_1_1374" style="mask-type:luminance" maskUnits="userSpaceOnUse" x="25" y="0" width="33" height="32">
<path d="M57.6114 0.309169H25.8353V31.4498H57.6114V0.309169Z" fill="white"/>
</mask>
<g mask="url(#mask1_1_1374)">
<path d="M53.5811 24.0271L52.6015 21.7983L51.7737 19.9212H51.7561H51.7707L51.7385 19.8462L50.9341 18.0151L50.7592 17.623C50.5109 17.0596 50.3831 16.4515 50.3831 15.8369C50.3831 15.2223 50.5109 14.6142 50.7592 14.0505L50.9341 13.6584L48.9749 12.9001L48.8261 13.2345L48.4676 14.0478C48.2184 14.6119 48.0897 15.2211 48.0897 15.8369C48.0897 16.4527 48.2184 17.0617 48.4676 17.626L48.8261 18.4391L48.9749 18.7734L49.8176 20.6795L50.6921 20.3391L49.8176 20.6824L49.9951 21.0888L50.87 23.0383L51.5755 24.6384C51.6301 24.7536 51.6462 24.883 51.6216 25.0079C51.597 25.1329 51.5327 25.2468 51.4383 25.3334C51.3508 25.4268 51.2358 25.4902 51.1095 25.5146C50.9832 25.539 50.8524 25.5229 50.7358 25.4687L49.1179 24.7682L47.1122 23.9435L46.7009 23.7647L45.9636 25.6246L45.9314 25.6996L47.8323 26.5183L50.0856 27.4902C50.5467 27.7178 51.074 27.7779 51.5755 27.6603C52.0748 27.4789 52.5287 27.1924 52.9054 26.8205C53.2818 26.4487 53.572 26.0004 53.756 25.5062C53.8731 25.0082 53.8112 24.4852 53.5811 24.0271Z" fill="#9095A0"/>
</g>
<mask id="mask2_1_1374" style="mask-type:luminance" maskUnits="userSpaceOnUse" x="25" y="-1" width="33" height="33">
<path d="M57.5848 -0.00771995H25.8086V31.1329H57.5848V-0.00771995Z" fill="white"/>
</mask>
<g mask="url(#mask2_1_1374)">
<path d="M45.1462 3.75432L44.2483 1.49072C44.0835 1.01117 43.7544 0.60331 43.3185 0.337354C42.8355 0.115129 42.3092 0 41.7764 0C41.2434 0 40.7173 0.115129 40.234 0.337354C39.7981 0.60331 39.4691 1.01117 39.3042 1.49072L38.4033 3.75432L37.6483 5.66004L37.7242 5.69187L38.9515 6.22229L37.7211 5.69187L37.6483 5.66004L37.6222 5.74958L36.8845 7.60919L36.727 8.00723C36.4993 8.57901 36.1551 9.09842 35.7158 9.53306C35.2766 9.96739 34.7514 10.308 34.1734 10.5332L33.7682 10.6918L34.6106 12.5975L34.9575 12.4621L35.7914 12.1391C36.3709 11.9154 36.8973 11.575 37.3375 11.1398C37.7773 10.7046 38.1215 10.1837 38.348 9.6104L38.6774 8.78279L38.8115 8.44276L39.578 6.50491L39.7444 6.09556L40.5373 4.09732L41.1814 2.47125C41.2245 2.35315 41.3038 2.2514 41.4085 2.1803C41.5132 2.1095 41.6377 2.07291 41.7646 2.07618H41.7995C41.9264 2.07291 42.0511 2.1095 42.1556 2.1803C42.2603 2.2514 42.3398 2.35315 42.3826 2.47125L43.0268 4.09732L43.8139 6.07831L43.9772 6.49063L45.8283 5.69485L45.9015 5.66004L45.1462 3.75432Z" fill="#9095A0"/>
</g>
<mask id="mask3_1_1374" style="mask-type:luminance" maskUnits="userSpaceOnUse" x="25" y="0" width="33" height="32">
<path d="M57.6035 0.0214306H25.8274V31.1621H57.6035V0.0214306Z" fill="white"/>
</mask>
<g mask="url(#mask3_1_1374)">
<path d="M53.7476 5.88523C53.5634 5.3914 53.2729 4.94279 52.8964 4.57063C52.52 4.19817 52.0665 3.9108 51.5671 3.72843C51.0657 3.6139 50.5393 3.674 50.0773 3.8986L47.8239 4.8705L45.923 5.68919L45.8475 5.72102L43.9991 6.51978L43.5996 6.69262C43.0304 6.93805 42.416 7.06448 41.7952 7.06448C41.1741 7.06448 40.56 6.93805 39.9905 6.69262L39.5914 6.51978L38.8246 8.45733L39.1655 8.60429L39.9878 8.9592C40.5576 9.20582 41.1729 9.33314 41.7952 9.33314C42.4172 9.33314 43.0328 9.20582 43.6026 8.9592L44.4277 8.60429L44.7659 8.45733L46.6929 7.62406L45.9522 5.77873V5.73827L45.9698 5.78171L46.7074 7.63834L47.1185 7.46253L49.0892 6.59742L50.7072 5.89981C50.8237 5.84567 50.9546 5.82961 51.0808 5.854C51.2071 5.87839 51.3222 5.94176 51.4096 6.03517C51.504 6.12174 51.5684 6.23568 51.5929 6.36062C51.6175 6.48557 51.6014 6.61498 51.5468 6.7301L50.8413 8.3306L49.9668 10.2798L49.7889 10.6861L51.6661 11.4159L51.745 11.4444L52.5701 9.56756L53.5552 7.33847C53.785 6.88986 53.8527 6.37728 53.7476 5.88523Z" fill="#9095A0"/>
</g>
<mask id="mask4_1_1374" style="mask-type:luminance" maskUnits="userSpaceOnUse" x="25" y="0" width="33" height="32">
<path d="M57.6174 0.157425H25.8412V31.298H57.6174V0.157425Z" fill="white"/>
</mask>
<g mask="url(#mask4_1_1374)">
<path d="M57.173 14.1611C56.9037 13.7298 56.4918 13.4037 56.007 13.2386L53.7185 12.3503L51.7915 11.6006L51.7681 11.6467L51.7887 11.6006L51.7128 11.5691L49.8353 10.8397L49.4331 10.6808C48.8548 10.4559 48.33 10.1153 47.8904 9.68063C47.4511 9.2463 47.1069 8.72689 46.8792 8.15511L46.722 7.75707L44.795 8.59034L44.9292 8.93066L45.2585 9.75828C45.485 10.3315 45.8289 10.8521 46.2691 11.2874C46.7089 11.7226 47.2353 12.0629 47.8151 12.2869L48.649 12.61L48.9957 12.7454L50.9518 13.5037L51.436 12.408L50.9548 13.5037L51.3716 13.6652L53.3715 14.4408L55.0186 15.081C55.1385 15.1229 55.2414 15.2014 55.3134 15.305C55.385 15.4088 55.4217 15.5323 55.4181 15.6578C55.4193 15.6635 55.4193 15.6694 55.4181 15.6751C55.4196 15.6807 55.4196 15.6867 55.4181 15.6923C55.4208 15.8176 55.3838 15.9407 55.3122 16.0442C55.2405 16.1475 55.1379 16.2263 55.0186 16.2688L53.3715 16.9061L51.3601 17.7021L50.9433 17.8634L51.7508 19.6944L51.7827 19.7694L53.7097 19.0197L55.9982 18.1317C56.4833 17.9684 56.8955 17.6432 57.1645 17.2119C57.3891 16.7341 57.5057 16.2135 57.5057 15.6867C57.5057 15.1595 57.3891 14.6389 57.1645 14.1611H57.173Z" fill="#9095A0"/>
</g>
<mask id="mask5_1_1374" style="mask-type:luminance" maskUnits="userSpaceOnUse" x="25" y="0" width="33" height="32">
<path d="M57.5749 0.398535H25.7987V31.5392H57.5749V0.398535Z" fill="white"/>
</mask>
<g mask="url(#mask5_1_1374)">
<path d="M44.3991 22.8825L43.5771 22.5249C43.007 22.2795 42.3917 22.1528 41.7697 22.1528C41.1477 22.1528 40.5324 22.2795 39.9623 22.5249L39.1403 22.8825L38.7991 23.0295L36.8721 23.8627L36.4495 24.0359L34.4788 24.8864L32.8608 25.5843C32.7448 25.6396 32.6137 25.6566 32.4871 25.6328C32.3608 25.6087 32.2455 25.5453 32.1581 25.4516C32.0636 25.3651 31.9996 25.2511 31.975 25.1262C31.9501 25.0015 31.9665 24.8718 32.0212 24.7567L32.7297 23.1565L33.6042 21.2044L33.7848 20.8007L31.9046 20.0682L31.8287 20.0394L30.9978 21.9166L30.0183 24.1453C29.7888 24.6026 29.7268 25.1244 29.8434 25.6218C30.0091 26.1245 30.3021 26.5773 30.6946 26.9367C31.057 27.3252 31.5151 27.6141 32.0239 27.7756C32.5254 27.8934 33.0527 27.8333 33.5138 27.6054L35.7671 26.6338L37.665 25.8149L37.7408 25.7833L39.592 24.9846L39.1284 23.8139L39.595 24.9846L39.9914 24.8144C40.5606 24.5693 41.175 24.4425 41.7958 24.4425C42.4169 24.4425 43.0313 24.5693 43.6005 24.8144L44 24.9846L44.7665 23.0497L44.3991 22.8825Z" fill="#9095A0"/>
</g>
<mask id="mask6_1_1374" style="mask-type:luminance" maskUnits="userSpaceOnUse" x="25" y="0" width="33" height="32">
<path d="M57.5689 0.0973949H25.7928V31.238H57.5689V0.0973949Z" fill="white"/>
</mask>
<g mask="url(#mask6_1_1374)">
<path d="M35.7325 4.94943L33.4791 3.97753C33.0171 3.75292 32.491 3.69283 31.9893 3.80736C31.4799 3.9692 31.0215 4.25925 30.66 4.64956C30.2675 5.00863 29.9745 5.46141 29.8088 5.96416C29.6928 6.46038 29.7535 6.98098 29.9809 7.43763L30.9663 9.66672L31.7941 11.5436L31.829 11.6186L32.6337 13.4496L33.5811 13.0834L32.6365 13.4496L32.8086 13.8447C33.0566 14.4078 33.1847 15.0153 33.1847 15.6296C33.1847 16.2436 33.0566 16.8511 32.8086 17.4142L32.6365 17.8063L34.5926 18.5676L34.7413 18.2303L35.0998 17.4172C35.3488 16.8532 35.4772 16.2448 35.4772 15.6296C35.4772 15.0141 35.3488 14.4057 35.0998 13.8417L34.7386 13.0287L34.5899 12.6913L33.7472 10.7826L33.5696 10.3789L32.695 8.42946L31.9865 6.82926C31.9319 6.71414 31.9155 6.58473 31.9404 6.45978C31.965 6.33484 32.029 6.2209 32.1234 6.13433C32.2109 6.04092 32.3262 5.97755 32.4525 5.95316C32.5788 5.92876 32.7096 5.94483 32.8262 5.99897L34.4442 6.69658L36.4149 7.56168L36.8259 7.7375L37.607 5.85766L37.6364 5.77972L35.7325 4.94943Z" fill="#9095A0"/>
</g>
<mask id="mask7_1_1374" style="mask-type:luminance" maskUnits="userSpaceOnUse" x="25" y="0" width="33" height="32">
<path d="M57.5946 0.422498H25.8185V31.5631H57.5946V0.422498Z" fill="white"/>
</mask>
<g mask="url(#mask7_1_1374)">
<path d="M48.9613 18.8897L48.6143 19.0224L47.7777 19.3482C47.1988 19.5725 46.6733 19.9125 46.2338 20.3474C45.7945 20.7821 45.4506 21.3018 45.2238 21.8742L44.8945 22.7018L44.7603 23.0418L43.9908 24.9796L43.8274 25.392L43.0403 27.3727L42.3961 28.999C42.3533 29.1174 42.2738 29.2195 42.1694 29.2909C42.0647 29.3623 41.9399 29.3995 41.813 29.3968H41.7781C41.6509 29.3995 41.5261 29.3623 41.4217 29.2909C41.317 29.2195 41.2378 29.1174 41.195 28.999L40.5505 27.3727L39.7664 25.392L39.6031 24.9796L37.7344 25.7867L37.6615 25.8186L38.4168 27.7273L39.3174 29.9879C39.4832 30.4674 39.8119 30.875 40.2475 31.1413C40.7311 31.3617 41.2572 31.4759 41.7896 31.4759C42.3221 31.4759 42.8481 31.3617 43.3317 31.1413C43.7673 30.875 44.0961 30.4674 44.2618 29.9879L45.1598 27.7273L45.9178 25.8186L45.9469 25.7436L46.6873 23.8837L46.8445 23.486C47.0722 22.9142 47.4164 22.3948 47.856 21.9601C48.2952 21.5258 48.8204 21.1852 49.3984 20.96L49.8036 20.8044L48.9613 18.8897Z" fill="#9095A0"/>
</g>
<path d="M0.41102 52.7873C0.279882 52.7873 0.178493 52.7522 0.107156 52.6823C0.0355157 52.6005 0 52.5011 0 52.3845V40.946C0 40.8175 0.0355157 40.7182 0.107156 40.6482C0.178493 40.5664 0.279882 40.5257 0.41102 40.5257H4.95108C5.83292 40.5257 6.59546 40.6658 7.23901 40.946C7.8944 41.2263 8.40074 41.6466 8.75834 42.2071C9.11563 42.756 9.29443 43.4449 9.29443 44.274C9.29443 45.1031 9.11563 45.7921 8.75834 46.341C8.40074 46.8899 7.8944 47.3046 7.23901 47.5848C6.59546 47.865 5.83292 48.0052 4.95108 48.0052H1.78737V52.3845C1.78737 52.5011 1.74547 52.6005 1.6623 52.6823C1.59066 52.7522 1.48927 52.7873 1.35843 52.7873H0.41102ZM1.76946 46.5338H4.86153C5.74337 46.5338 6.40483 46.341 6.8456 45.9558C7.28668 45.5705 7.50706 45.0097 7.50706 44.274C7.50706 43.5503 7.29244 42.9895 6.86351 42.5926C6.43458 42.1955 5.76736 41.9971 4.86153 41.9971H1.76946V46.5338ZM16.3656 52.9625C15.3644 52.9625 14.5005 52.7873 13.7738 52.4369C13.0589 52.0867 12.5046 51.5554 12.1115 50.8429C11.7302 50.1188 11.5396 49.1907 11.5396 48.0578V40.946C11.5396 40.8175 11.5754 40.7182 11.6467 40.6482C11.7184 40.5664 11.8194 40.5257 11.9506 40.5257H12.8622C12.9933 40.5257 13.0944 40.5664 13.166 40.6482C13.2495 40.7182 13.2911 40.8175 13.2911 40.946V48.0929C13.2911 49.2374 13.5652 50.0837 14.1135 50.6326C14.6614 51.1815 15.4121 51.456 16.3656 51.456C17.3069 51.456 18.0515 51.1815 18.5998 50.6326C19.1598 50.0837 19.4397 49.2374 19.4397 48.0929V40.946C19.4397 40.8175 19.4756 40.7182 19.5472 40.6482C19.6304 40.5664 19.7318 40.5257 19.8511 40.5257H20.7806C20.8996 40.5257 20.9949 40.5664 21.0665 40.6482C21.1497 40.7182 21.1916 40.8175 21.1916 40.946V48.0578C21.1916 49.1907 20.9949 50.1188 20.6018 50.8429C20.2205 51.5554 19.6723 52.0867 18.9574 52.4369C18.2422 52.7873 17.3782 52.9625 16.3656 52.9625ZM24.7694 52.7873C24.6382 52.7873 24.5371 52.7522 24.4655 52.6823C24.3941 52.6005 24.3583 52.5011 24.3583 52.3845V40.9285C24.3583 40.8116 24.3941 40.7182 24.4655 40.6482C24.5371 40.5664 24.6382 40.5257 24.7694 40.5257H25.7168C25.8361 40.5257 25.9314 40.5664 26.0027 40.6482C26.0744 40.7182 26.1099 40.8116 26.1099 40.9285V51.2633H32.0621C32.1932 51.2633 32.2943 51.3043 32.366 51.3858C32.4373 51.456 32.4731 51.5554 32.4731 51.6836V52.3845C32.4731 52.5011 32.4373 52.6005 32.366 52.6823C32.2943 52.7522 32.1932 52.7873 32.0621 52.7873H24.7694ZM36.6334 52.7873C36.4546 52.7873 36.3116 52.7463 36.2045 52.6647C36.1092 52.5829 36.0318 52.472 35.972 52.3318L31.9862 41.0686C31.9622 40.9987 31.9504 40.9344 31.9504 40.8758C31.9504 40.7824 31.9862 40.7009 32.0575 40.6307C32.1292 40.5605 32.2127 40.5257 32.308 40.5257H33.2372C33.3802 40.5257 33.4876 40.5664 33.559 40.6482C33.6424 40.7182 33.6901 40.7824 33.7019 40.841L37.2053 50.7727L40.7087 40.841C40.7324 40.7824 40.7801 40.7182 40.8517 40.6482C40.9233 40.5664 41.0305 40.5257 41.1735 40.5257H42.103C42.1983 40.5257 42.2818 40.5605 42.3531 40.6307C42.4366 40.7009 42.4782 40.7824 42.4782 40.8758C42.4782 40.9344 42.4663 40.9987 42.4424 41.0686L38.4387 52.3318C38.391 52.472 38.3136 52.5829 38.2065 52.6647C38.1112 52.7463 37.9739 52.7873 37.7952 52.7873H36.6334ZM45.2005 52.7873C45.0694 52.7873 44.968 52.7522 44.8966 52.6823C44.825 52.6005 44.7892 52.5011 44.7892 52.3845V40.9285C44.7892 40.8116 44.825 40.7182 44.8966 40.6482C44.968 40.5664 45.0694 40.5257 45.2005 40.5257H46.1476C46.2669 40.5257 46.3622 40.5664 46.4339 40.6482C46.5171 40.7182 46.559 40.8116 46.559 40.9285V52.3845C46.559 52.5011 46.5171 52.6005 46.4339 52.6823C46.3622 52.7522 46.2669 52.7873 46.1476 52.7873H45.2005ZM50.2666 52.7873C50.1355 52.7873 50.0344 52.7522 49.9628 52.6823C49.8911 52.6005 49.8556 52.5011 49.8556 52.3845V40.946C49.8556 40.8175 49.8911 40.7182 49.9628 40.6482C50.0344 40.5664 50.1355 40.5257 50.2666 40.5257H51.089C51.232 40.5257 51.3391 40.5605 51.4105 40.6307C51.4821 40.689 51.5237 40.7357 51.5358 40.7708L57.4698 49.7044V40.946C57.4698 40.8175 57.5057 40.7182 57.5773 40.6482C57.6486 40.5664 57.75 40.5257 57.8812 40.5257H58.739C58.8702 40.5257 58.9713 40.5664 59.0429 40.6482C59.1264 40.7182 59.168 40.8175 59.168 40.946V52.367C59.168 52.4836 59.1264 52.5829 59.0429 52.6647C58.9713 52.7463 58.8759 52.7873 58.7569 52.7873H57.8988C57.7679 52.7873 57.6665 52.7522 57.5949 52.6823C57.5354 52.6121 57.4938 52.5654 57.4698 52.5422L51.5534 43.696V52.3845C51.5534 52.5011 51.5118 52.6005 51.4284 52.6823C51.357 52.7522 51.2556 52.7873 51.1245 52.7873H50.2666ZM61.6049 52.7873C61.5096 52.7873 61.4261 52.7522 61.3545 52.6823C61.2832 52.6121 61.2474 52.5303 61.2474 52.4369C61.2474 52.3786 61.2534 52.3143 61.2653 52.2444L65.6982 40.9109C65.7458 40.7943 65.8114 40.7009 65.8946 40.6307C65.978 40.5605 66.1031 40.5257 66.2701 40.5257H67.4855C67.6403 40.5257 67.7596 40.5605 67.8428 40.6307C67.9381 40.7009 68.0098 40.7943 68.0574 40.9109L72.4724 52.2444C72.4961 52.3143 72.5082 52.3786 72.5082 52.4369C72.5082 52.5303 72.4724 52.6121 72.4008 52.6823C72.3294 52.7522 72.246 52.7873 72.1507 52.7873H71.239C71.0961 52.7873 70.9889 52.7522 70.9173 52.6823C70.8578 52.6121 70.8159 52.5478 70.7922 52.4895L69.809 50.0022H63.9463L62.9634 52.4895C62.9512 52.5478 62.9096 52.6121 62.8383 52.6823C62.7667 52.7522 62.6595 52.7873 62.5165 52.7873H61.6049ZM64.4648 48.4957H69.2908L66.8778 42.2773L64.4648 48.4957ZM75.009 52.7873C74.8781 52.7873 74.7767 52.7522 74.7051 52.6823C74.6338 52.6005 74.598 52.5011 74.598 52.3845V40.946C74.598 40.8175 74.6338 40.7182 74.7051 40.6482C74.7767 40.5664 74.8781 40.5257 75.009 40.5257H79.3702C80.7168 40.5257 81.7835 40.8351 82.5698 41.4538C83.3563 42.0729 83.7494 42.9895 83.7494 44.2041C83.7494 45.1032 83.5172 45.8388 83.0524 46.4112C82.5995 46.9717 81.98 47.3629 81.1934 47.5848L83.9461 52.2444C83.9819 52.3143 83.9998 52.3786 83.9998 52.4369C83.9998 52.5303 83.9579 52.6121 83.8748 52.6823C83.8031 52.7522 83.7197 52.7873 83.6243 52.7873H82.7665C82.564 52.7873 82.415 52.7347 82.3196 52.6296C82.2243 52.5246 82.1408 52.4193 82.0695 52.3143L79.4777 47.865H76.3495V52.3845C76.3495 52.5011 76.3079 52.6005 76.2244 52.6823C76.1531 52.7522 76.0517 52.7873 75.9206 52.7873H75.009ZM76.3495 46.3761H79.2989C80.1926 46.3761 80.8598 46.1952 81.3009 45.8332C81.7417 45.4595 81.962 44.9107 81.962 44.1866C81.962 43.4741 81.7417 42.9312 81.3009 42.5575C80.872 42.1839 80.2044 41.9971 79.2989 41.9971H76.3495V46.3761Z" fill="#9095A0"/>
</svg>
