<svg width="24" height="24" viewBox="0 0 24 24" fill="none" xmlns="http://www.w3.org/2000/svg">
<path d="M7.71418 18.0001L7.71418 19.2858C7.71418 20.3084 6.69075 20.5261 6.39418 20.5681C5.70075 20.5492 5.14275 19.9826 5.14275 19.2858L5.14275 3.42864L17.9999 3.42864L17.9999 16.2858H19.7142L19.7142 2.5715C19.7142 2.09836 19.3302 1.71436 18.857 1.71436L4.28561 1.71436C3.81247 1.71436 3.42847 2.09836 3.42847 2.5715L3.42847 19.2858C3.42847 20.9401 4.77418 22.2858 6.42847 22.2858L19.2856 22.2858C20.9399 22.2858 22.2856 20.9401 22.2856 19.2858V18.0001L7.71418 18.0001Z" fill="#636AE8"/>
<path d="M15.4286 6L7.71436 6V7.71429L15.4286 7.71429V6Z" fill="#636AE8"/>
<path d="M15.4286 9.42847L7.71436 9.42847V11.1428L15.4286 11.1428V9.42847Z" fill="#636AE8"/>
<path d="M15.4286 12.8572L7.71436 12.8572V14.5715L15.4286 14.5715V12.8572Z" fill="#636AE8"/>
</svg>
